<?xml version="1.0" encoding="utf-8"?>
<!-- Generator: Adobe Illustrator 27.4.0, SVG Export Plug-In . SVG Version: 6.00 Build 0)  -->
<svg version="1.1" id="Layer_1" xmlns="http://www.w3.org/2000/svg" xmlns:xlink="http://www.w3.org/1999/xlink" x="0px" y="0px"
	 viewBox="0 0 612 792" style="enable-background:new 0 0 612 792;" xml:space="preserve">
<style type="text/css">
	.st0{fill-rule:evenodd;clip-rule:evenodd;fill:none;stroke:#FBF9F9;stroke-linecap:round;stroke-linejoin:round;}
	.st1{fill-rule:evenodd;clip-rule:evenodd;fill:#EF8226;}
	.st2{fill:#FFFFFF;}
</style>
<g>
	<polygon class="st0" points="-456.14,124.46 -459.21,124.31 -459.6,130.75 -474.03,128.4 -486.32,121.32 -488.77,121.49 
		-487.47,116.33 -486.27,113.19 -483.54,110.67 -481.65,105.72 -479.41,103.69 -477.53,100.28 -478.4,91.01 -477.13,85.68 
		-477.44,84.22 -446.51,79.87 -457.19,121.54 	"/>
	<polygon class="st0" points="-520.08,168.33 -521.87,163.74 -534.96,153.76 -526.23,141.49 -550.28,126.98 -534.11,117.86 
		-531.98,115.33 -529.93,115.1 -525.7,112.6 -514.61,118.12 -498.72,119.68 -496.27,112.97 -494.26,113.76 -493.19,111.82 
		-487.47,116.33 -488.77,121.49 -490.52,137.58 -489.1,142.43 -489.72,151.3 -489.06,155.34 -490.13,168.98 -497.04,169.42 
		-499.26,166.92 -502.76,166.18 -502.67,169.07 -507.23,168.29 -511.62,166.99 -511.85,164.32 -518.22,167.97 	"/>
	<polygon class="st0" points="-458.51,161.44 -459.47,175.23 -463.67,174.86 -488.19,178.3 -492,183.23 -493.28,181.66 
		-492.97,174.58 -490.13,168.98 -489.06,155.34 -489.72,151.3 -489.1,142.43 -490.52,137.58 -488.77,121.49 -486.32,121.32 
		-474.03,128.4 -459.6,130.75 -459.21,124.31 -456.14,124.46 	"/>
	<polygon class="st0" points="-520.08,168.33 -522.68,170.22 -527.7,176.68 -547.2,177.54 -548.14,182.23 -547.81,184.15 
		-550.55,184.17 -555.69,182.51 -557.95,182.75 -558.18,181.09 -560.64,178.93 -563.47,179 -566.57,173.61 -567.31,171.08 
		-570.54,167.35 -570.73,166.52 -569.2,164.18 -570.22,156.69 -569.61,155.54 -569.93,151.33 -572.51,150.48 -572.49,148.73 
		-571.26,147.09 -574,144.87 -574.5,143.69 -576.2,143.05 -550.28,126.98 -526.23,141.49 -534.96,153.76 -521.87,163.74 	"/>
	<polygon class="st0" points="-543.86,191.8 -544.24,189.45 -546.77,186.89 -546.75,184.93 -547.81,184.15 -548.14,182.23 
		-547.2,177.54 -527.7,176.68 -522.68,170.22 -520.08,168.33 -518.22,167.97 -511.85,164.32 -511.62,166.99 -507.23,168.29 
		-502.67,169.07 -502.76,166.18 -499.26,166.92 -497.04,169.42 -490.13,168.98 -492.97,174.58 -493.28,181.66 -492,183.23 
		-490.1,187.34 -491.91,194.28 -510.84,212.23 -520.19,206.65 	"/>
	<polygon class="st0" points="-460.47,190.39 -491.91,194.28 -490.1,187.34 -492,183.23 -488.19,178.3 -463.67,174.86 
		-459.47,175.23 	"/>
	<polygon class="st0" points="-485.9,225.55 -485.5,219.47 -486.15,211.74 -488.08,206.82 -491.03,202.25 -491.29,200.46 
		-490.1,197.41 -491.91,194.28 -460.47,190.39 -460.9,197.27 -455.7,205.22 -473.53,215.8 -468.37,224.2 -468.33,225.56 
		-477.48,236.23 -480.69,235.65 -481.65,234.18 -486.78,232.35 -485.86,229.14 	"/>
</g>
<path class="st1" d="M-550.28,151.22c2.65,0,4.82,2.51,4.2,5.13c-0.51,2.15-2.82,4.17-4.19,5.75c-1.38-1.61-3.81-3.78-4.24-5.93
	C-555.02,153.61-552.83,151.22-550.28,151.22L-550.28,151.22z"/>
<path class="st1" d="M-510.93,138.76c2.65,0,4.82,2.51,4.2,5.13c-0.51,2.15-2.82,4.17-4.19,5.75c-1.38-1.61-3.81-3.78-4.24-5.93
	C-515.67,141.15-513.48,138.76-510.93,138.76L-510.93,138.76z"/>
<path class="st1" d="M-473.8,144.28c2.65,0,4.82,2.51,4.2,5.13c-0.51,2.15-2.82,4.17-4.19,5.75c-1.38-1.61-3.81-3.78-4.24-5.93
	C-478.55,146.67-476.35,144.28-473.8,144.28L-473.8,144.28z"/>
<path class="st1" d="M-475.73,172.92c2.65,0,4.82,2.51,4.2,5.13c-0.51,2.15-2.82,4.17-4.19,5.75c-1.38-1.61-3.81-3.78-4.24-5.93
	C-480.48,175.32-478.28,172.92-475.73,172.92L-475.73,172.92z"/>
<path class="st1" d="M-478.11,204.66c2.65,0,4.82,2.51,4.2,5.13c-0.51,2.15-2.82,4.17-4.19,5.75c-1.38-1.61-3.81-3.78-4.24-5.93
	C-482.86,207.06-480.66,204.66-478.11,204.66L-478.11,204.66z"/>
<path class="st1" d="M-515.23,186.17c2.65,0,4.82,2.51,4.2,5.13c-0.51,2.15-2.82,4.17-4.19,5.75c-1.38-1.61-3.81-3.78-4.24-5.93
	C-519.98,188.57-517.78,186.17-515.23,186.17L-515.23,186.17z"/>
<g>
	<path class="st1" d="M-465.48,99.87c2.65,0,4.82,2.51,4.2,5.13c-0.51,2.15-2.82,4.17-4.19,5.75c-1.38-1.61-3.81-3.78-4.24-5.93
		C-470.23,102.26-468.03,99.87-465.48,99.87L-465.48,99.87z"/>
	<g>
		<g>
			<path class="st2" d="M-485.03,202.44l-1.04-3.6h0.46l0.8,2.85l0.8-2.84l0.47,0l0.8,2.85l0.8-2.85h0.47l-1.04,3.6h-0.45
				l-0.81-2.82l-0.81,2.82H-485.03z"/>
			<path class="st2" d="M-479.89,202.51c-0.26,0-0.5-0.06-0.69-0.18c-0.2-0.12-0.35-0.28-0.46-0.49c-0.11-0.21-0.17-0.46-0.17-0.74
				c0-0.3,0.05-0.55,0.16-0.77s0.26-0.38,0.45-0.5s0.42-0.18,0.68-0.18c0.27,0,0.5,0.06,0.69,0.19c0.19,0.12,0.33,0.3,0.43,0.54
				s0.14,0.51,0.12,0.83h-0.45v-0.16c0-0.33-0.07-0.58-0.2-0.74s-0.32-0.25-0.58-0.25c-0.27,0-0.48,0.09-0.63,0.26
				s-0.21,0.43-0.21,0.76c0,0.32,0.07,0.56,0.21,0.74c0.14,0.18,0.35,0.26,0.61,0.26c0.18,0,0.33-0.04,0.46-0.12
				c0.13-0.08,0.24-0.2,0.31-0.35l0.43,0.15c-0.1,0.24-0.26,0.42-0.47,0.55S-479.62,202.51-479.89,202.51z M-480.88,201.21v-0.36h2
				v0.36H-480.88z"/>
			<path class="st2" d="M-477.08,202.51c-0.32,0-0.59-0.07-0.79-0.21c-0.21-0.14-0.33-0.34-0.38-0.59l0.46-0.07
				c0.04,0.15,0.12,0.26,0.25,0.35s0.29,0.13,0.49,0.13c0.18,0,0.33-0.04,0.43-0.12c0.11-0.08,0.16-0.18,0.16-0.31
				c0-0.07-0.02-0.14-0.05-0.18c-0.04-0.05-0.11-0.09-0.22-0.13c-0.11-0.04-0.27-0.09-0.49-0.15c-0.24-0.06-0.43-0.13-0.56-0.2
				s-0.23-0.15-0.29-0.24c-0.06-0.09-0.09-0.2-0.09-0.33c0-0.16,0.04-0.3,0.13-0.42c0.09-0.12,0.21-0.21,0.36-0.28
				c0.16-0.07,0.34-0.1,0.54-0.1c0.21,0,0.39,0.03,0.55,0.1c0.16,0.07,0.29,0.16,0.39,0.28c0.1,0.12,0.16,0.26,0.18,0.42l-0.46,0.08
				c-0.02-0.14-0.09-0.26-0.21-0.34c-0.12-0.08-0.27-0.13-0.45-0.13c-0.17,0-0.32,0.03-0.43,0.1s-0.16,0.16-0.16,0.27
				c0,0.07,0.02,0.12,0.06,0.17s0.12,0.09,0.23,0.13c0.11,0.04,0.27,0.09,0.48,0.14c0.24,0.06,0.43,0.13,0.56,0.2
				c0.14,0.07,0.24,0.15,0.29,0.25c0.06,0.1,0.09,0.21,0.09,0.35c0,0.26-0.1,0.46-0.29,0.61
				C-476.48,202.43-476.75,202.51-477.08,202.51z"/>
			<path class="st2" d="M-475.75,200.1v-0.37h1.81v0.37H-475.75z M-473.94,202.44c-0.16,0.03-0.32,0.05-0.47,0.04
				s-0.29-0.04-0.42-0.09c-0.12-0.06-0.21-0.15-0.28-0.27c-0.05-0.11-0.08-0.21-0.09-0.32c0-0.11-0.01-0.23-0.01-0.37v-2.43h0.45
				v2.41c0,0.11,0,0.2,0,0.28c0,0.08,0.02,0.15,0.05,0.2c0.06,0.11,0.16,0.17,0.29,0.19c0.13,0.02,0.29,0.01,0.47-0.02V202.44z"/>
			<path class="st2" d="M-472.26,202.51c-0.27,0-0.5-0.06-0.7-0.18c-0.19-0.12-0.34-0.29-0.44-0.51s-0.15-0.46-0.15-0.73
				c0-0.28,0.05-0.53,0.16-0.74c0.1-0.21,0.25-0.38,0.44-0.5s0.42-0.18,0.69-0.18c0.29,0,0.53,0.07,0.74,0.21
				c0.21,0.14,0.34,0.33,0.41,0.58l-0.44,0.13c-0.06-0.16-0.15-0.28-0.28-0.37c-0.13-0.09-0.27-0.13-0.44-0.13
				c-0.18,0-0.34,0.04-0.46,0.13s-0.21,0.2-0.27,0.35c-0.06,0.15-0.09,0.32-0.09,0.52c0,0.3,0.07,0.54,0.21,0.73
				c0.14,0.18,0.34,0.28,0.61,0.28c0.18,0,0.32-0.04,0.44-0.12c0.12-0.08,0.21-0.2,0.27-0.35l0.45,0.12
				c-0.09,0.25-0.24,0.44-0.44,0.58S-471.98,202.51-472.26,202.51z"/>
			<path class="st2" d="M-470.59,202.44v-3.6h0.4v1.99h0.05v1.61H-470.59z M-468.67,202.44v-1.35c0-0.13-0.01-0.25-0.04-0.37
				s-0.06-0.23-0.12-0.32s-0.13-0.17-0.22-0.22c-0.09-0.06-0.21-0.08-0.36-0.08c-0.11,0-0.21,0.02-0.3,0.06s-0.17,0.1-0.23,0.17
				c-0.07,0.08-0.12,0.17-0.15,0.29c-0.04,0.12-0.05,0.25-0.05,0.41l-0.29-0.09c0-0.26,0.05-0.48,0.14-0.67
				c0.09-0.19,0.23-0.33,0.4-0.43c0.17-0.1,0.37-0.15,0.6-0.15c0.17,0,0.32,0.03,0.45,0.08c0.12,0.05,0.23,0.13,0.31,0.22
				c0.08,0.09,0.15,0.19,0.19,0.31c0.05,0.11,0.08,0.23,0.1,0.34c0.02,0.12,0.03,0.23,0.03,0.33v1.49H-468.67z"/>
			<path class="st2" d="M-466.4,202.51c-0.26,0-0.5-0.06-0.69-0.18c-0.2-0.12-0.35-0.28-0.46-0.49c-0.11-0.21-0.17-0.46-0.17-0.74
				c0-0.3,0.05-0.55,0.16-0.77s0.26-0.38,0.45-0.5s0.42-0.18,0.68-0.18c0.27,0,0.5,0.06,0.69,0.19c0.19,0.12,0.33,0.3,0.43,0.54
				s0.14,0.51,0.12,0.83h-0.45v-0.16c0-0.33-0.07-0.58-0.2-0.74s-0.32-0.25-0.58-0.25c-0.27,0-0.48,0.09-0.63,0.26
				s-0.21,0.43-0.21,0.76c0,0.32,0.07,0.56,0.21,0.74c0.14,0.18,0.35,0.26,0.61,0.26c0.18,0,0.33-0.04,0.46-0.12
				c0.13-0.08,0.24-0.2,0.31-0.35l0.43,0.15c-0.1,0.24-0.26,0.42-0.47,0.55S-466.14,202.51-466.4,202.51z M-467.39,201.21v-0.36h2
				v0.36H-467.39z"/>
			<path class="st2" d="M-463.59,202.51c-0.32,0-0.59-0.07-0.79-0.21c-0.21-0.14-0.33-0.34-0.38-0.59l0.46-0.07
				c0.04,0.15,0.12,0.26,0.25,0.35s0.29,0.13,0.49,0.13c0.18,0,0.33-0.04,0.43-0.12c0.11-0.08,0.16-0.18,0.16-0.31
				c0-0.07-0.02-0.14-0.05-0.18c-0.04-0.05-0.11-0.09-0.22-0.13c-0.11-0.04-0.27-0.09-0.49-0.15c-0.24-0.06-0.43-0.13-0.56-0.2
				s-0.23-0.15-0.29-0.24c-0.06-0.09-0.09-0.2-0.09-0.33c0-0.16,0.04-0.3,0.13-0.42c0.09-0.12,0.21-0.21,0.36-0.28
				c0.16-0.07,0.34-0.1,0.54-0.1c0.21,0,0.39,0.03,0.55,0.1c0.16,0.07,0.29,0.16,0.39,0.28c0.1,0.12,0.16,0.26,0.18,0.42l-0.46,0.08
				c-0.02-0.14-0.09-0.26-0.21-0.34c-0.12-0.08-0.27-0.13-0.45-0.13c-0.17,0-0.32,0.03-0.43,0.1s-0.16,0.16-0.16,0.27
				c0,0.07,0.02,0.12,0.06,0.17s0.12,0.09,0.23,0.13c0.11,0.04,0.27,0.09,0.48,0.14c0.24,0.06,0.43,0.13,0.56,0.2
				c0.14,0.07,0.24,0.15,0.29,0.25c0.06,0.1,0.09,0.21,0.09,0.35c0,0.26-0.1,0.46-0.29,0.61
				C-462.99,202.43-463.26,202.51-463.59,202.51z"/>
			<path class="st2" d="M-462.26,200.1v-0.37h1.81v0.37H-462.26z M-460.45,202.44c-0.16,0.03-0.32,0.05-0.47,0.04
				s-0.29-0.04-0.42-0.09c-0.12-0.06-0.21-0.15-0.28-0.27c-0.05-0.11-0.08-0.21-0.09-0.32c0-0.11-0.01-0.23-0.01-0.37v-2.43h0.45
				v2.41c0,0.11,0,0.2,0,0.28c0,0.08,0.02,0.15,0.05,0.2c0.06,0.11,0.16,0.17,0.29,0.19c0.13,0.02,0.29,0.01,0.47-0.02V202.44z"/>
			<path class="st2" d="M-458.73,202.51c-0.26,0-0.5-0.06-0.69-0.18c-0.2-0.12-0.35-0.28-0.46-0.49c-0.11-0.21-0.17-0.46-0.17-0.74
				c0-0.3,0.05-0.55,0.16-0.77s0.26-0.38,0.45-0.5s0.42-0.18,0.68-0.18c0.27,0,0.5,0.06,0.69,0.19c0.19,0.12,0.33,0.3,0.43,0.54
				s0.14,0.51,0.12,0.83h-0.45v-0.16c0-0.33-0.07-0.58-0.2-0.74s-0.32-0.25-0.58-0.25c-0.27,0-0.48,0.09-0.63,0.26
				s-0.21,0.43-0.21,0.76c0,0.32,0.07,0.56,0.21,0.74c0.14,0.18,0.35,0.26,0.61,0.26c0.18,0,0.33-0.04,0.46-0.12
				c0.13-0.08,0.24-0.2,0.31-0.35l0.43,0.15c-0.1,0.24-0.26,0.42-0.47,0.55S-458.47,202.51-458.73,202.51z M-459.73,201.21v-0.36h2
				v0.36H-459.73z"/>
			<path class="st2" d="M-456.95,202.44v-2.7h0.4v0.65l-0.06-0.08c0.03-0.08,0.07-0.16,0.12-0.23c0.05-0.07,0.11-0.13,0.17-0.17
				c0.07-0.06,0.15-0.1,0.24-0.13c0.09-0.03,0.18-0.05,0.27-0.05c0.09-0.01,0.18,0,0.26,0.02v0.42c-0.09-0.02-0.2-0.03-0.31-0.02
				c-0.11,0.01-0.21,0.05-0.31,0.12c-0.09,0.06-0.15,0.14-0.2,0.23c-0.05,0.09-0.08,0.18-0.1,0.29s-0.03,0.21-0.03,0.31v1.36
				H-456.95z"/>
		</g>
	</g>
	<g>
		<g>
			<path class="st2" d="M-484.54,187.61v-3.6h1.42c0.04,0,0.08,0,0.12,0c0.05,0,0.09,0.01,0.14,0.02c0.2,0.03,0.36,0.1,0.49,0.2
				c0.13,0.1,0.23,0.24,0.3,0.39c0.07,0.16,0.1,0.33,0.1,0.52c0,0.19-0.03,0.37-0.1,0.52s-0.17,0.29-0.3,0.39s-0.3,0.17-0.49,0.2
				c-0.04,0.01-0.09,0.01-0.14,0.01c-0.05,0-0.09,0-0.12,0h-0.98v1.33H-484.54z M-484.1,185.86h0.96c0.03,0,0.07,0,0.11,0
				c0.04,0,0.08-0.01,0.12-0.02c0.12-0.03,0.21-0.08,0.28-0.15c0.07-0.07,0.12-0.15,0.16-0.25s0.05-0.19,0.05-0.29
				c0-0.1-0.02-0.2-0.05-0.29s-0.09-0.18-0.16-0.25c-0.07-0.07-0.17-0.12-0.28-0.15c-0.04-0.01-0.08-0.01-0.12-0.02
				c-0.04,0-0.08,0-0.11,0h-0.96V185.86z"/>
			<path class="st2" d="M-480.44,187.68c-0.17,0-0.32-0.03-0.45-0.08c-0.12-0.05-0.23-0.13-0.31-0.22c-0.08-0.09-0.15-0.19-0.19-0.3
				c-0.05-0.11-0.08-0.23-0.1-0.34c-0.02-0.12-0.03-0.23-0.03-0.33v-1.49h0.45v1.35c0,0.13,0.01,0.25,0.04,0.37
				c0.02,0.12,0.06,0.23,0.12,0.32c0.06,0.09,0.13,0.17,0.23,0.23c0.09,0.05,0.21,0.08,0.35,0.08c0.11,0,0.21-0.02,0.3-0.06
				s0.17-0.1,0.23-0.17c0.07-0.08,0.12-0.17,0.15-0.29c0.04-0.12,0.05-0.25,0.05-0.41l0.29,0.09c0,0.26-0.05,0.48-0.14,0.67
				c-0.09,0.19-0.23,0.33-0.4,0.43S-480.21,187.68-480.44,187.68z M-479.54,187.61v-0.72h-0.05v-1.98h0.45v2.7H-479.54z"/>
			<path class="st2" d="M-478.74,185.28v-0.37h1.81v0.37H-478.74z M-476.93,187.61c-0.16,0.03-0.32,0.05-0.47,0.04
				s-0.29-0.04-0.42-0.09c-0.12-0.06-0.21-0.15-0.28-0.27c-0.05-0.11-0.08-0.21-0.09-0.32c0-0.11-0.01-0.23-0.01-0.37v-2.43h0.45
				v2.41c0,0.11,0,0.2,0,0.28c0,0.08,0.02,0.15,0.05,0.2c0.06,0.11,0.16,0.17,0.29,0.19c0.13,0.02,0.29,0.01,0.47-0.02V187.61z"/>
			<path class="st2" d="M-476.39,187.61v-2.7h0.4v0.72h0.05v1.98H-476.39z M-474.46,187.61v-1.35c0-0.13-0.01-0.25-0.04-0.37
				s-0.06-0.23-0.12-0.32s-0.13-0.17-0.22-0.22c-0.09-0.06-0.21-0.08-0.36-0.08c-0.11,0-0.21,0.02-0.3,0.06s-0.17,0.1-0.23,0.17
				c-0.07,0.08-0.12,0.17-0.15,0.29c-0.04,0.12-0.05,0.25-0.05,0.41l-0.29-0.09c0-0.26,0.05-0.48,0.14-0.67
				c0.09-0.19,0.23-0.33,0.4-0.43c0.17-0.1,0.37-0.15,0.6-0.15c0.17,0,0.32,0.03,0.45,0.08c0.12,0.05,0.23,0.13,0.31,0.22
				c0.08,0.09,0.15,0.19,0.19,0.31c0.05,0.11,0.08,0.23,0.1,0.34c0.02,0.12,0.03,0.23,0.03,0.33v1.49H-474.46z"/>
			<path class="st2" d="M-472.59,187.68c-0.2,0-0.37-0.04-0.51-0.11s-0.24-0.17-0.31-0.29c-0.07-0.12-0.1-0.25-0.1-0.4
				c0-0.14,0.03-0.26,0.08-0.37c0.05-0.1,0.13-0.19,0.23-0.26c0.1-0.07,0.22-0.12,0.35-0.17c0.13-0.04,0.27-0.07,0.43-0.09
				c0.16-0.03,0.32-0.05,0.48-0.07c0.16-0.02,0.32-0.04,0.46-0.06l-0.16,0.09c0-0.24-0.04-0.42-0.15-0.53
				c-0.1-0.12-0.27-0.17-0.52-0.17c-0.16,0-0.31,0.04-0.43,0.11c-0.12,0.07-0.21,0.19-0.26,0.36l-0.42-0.13
				c0.07-0.24,0.19-0.42,0.38-0.56s0.43-0.2,0.74-0.2c0.25,0,0.46,0.04,0.63,0.13c0.18,0.09,0.3,0.22,0.38,0.4
				c0.04,0.08,0.06,0.17,0.07,0.27c0.01,0.1,0.02,0.2,0.02,0.31v1.67h-0.4v-0.65l0.09,0.06c-0.1,0.22-0.24,0.39-0.43,0.5
				C-472.11,187.63-472.33,187.68-472.59,187.68z M-472.53,187.31c0.16,0,0.3-0.03,0.42-0.09c0.12-0.06,0.21-0.13,0.28-0.23
				c0.07-0.09,0.12-0.2,0.14-0.31c0.02-0.08,0.04-0.18,0.04-0.28c0-0.1,0-0.18,0-0.24l0.15,0.07c-0.14,0.02-0.29,0.04-0.43,0.06
				c-0.14,0.02-0.27,0.04-0.4,0.06s-0.24,0.04-0.34,0.07c-0.07,0.02-0.14,0.05-0.21,0.09c-0.06,0.04-0.12,0.08-0.16,0.14
				c-0.04,0.06-0.06,0.13-0.06,0.21c0,0.07,0.02,0.14,0.06,0.21c0.04,0.07,0.1,0.12,0.17,0.16
				C-472.76,187.29-472.65,187.31-472.53,187.31z"/>
			<path class="st2" d="M-470.55,187.61v-2.7h0.4v0.72h0.05v1.98H-470.55z M-468.93,187.61l0-1.71c0-0.21-0.05-0.37-0.16-0.49
				c-0.11-0.12-0.25-0.18-0.42-0.18c-0.18,0-0.32,0.06-0.43,0.18c-0.11,0.12-0.16,0.28-0.16,0.48l-0.24-0.14
				c0-0.17,0.04-0.33,0.12-0.47c0.08-0.14,0.2-0.25,0.34-0.33c0.14-0.08,0.31-0.12,0.49-0.12s0.34,0.04,0.47,0.12
				c0.13,0.08,0.24,0.19,0.31,0.33c0.07,0.14,0.11,0.31,0.11,0.51l0,1.82H-468.93z M-467.32,187.61l0-1.73
				c0-0.2-0.05-0.36-0.16-0.47s-0.25-0.17-0.42-0.17c-0.1,0-0.2,0.02-0.29,0.07s-0.16,0.12-0.22,0.21s-0.08,0.22-0.08,0.37
				l-0.24-0.09c0-0.19,0.04-0.36,0.12-0.5c0.08-0.14,0.2-0.26,0.34-0.34c0.14-0.08,0.3-0.12,0.48-0.12c0.28,0,0.5,0.08,0.67,0.26
				c0.16,0.17,0.24,0.4,0.24,0.69l0,1.83H-467.32z"/>
		</g>
	</g>
	<g>
		<g>
			<path class="st2" d="M-522.06,183.38c-0.36,0-0.66-0.08-0.91-0.24c-0.25-0.16-0.44-0.38-0.57-0.66c-0.13-0.28-0.2-0.61-0.2-0.98
				s0.07-0.7,0.2-0.98c0.13-0.28,0.32-0.5,0.57-0.66s0.55-0.24,0.91-0.24c0.36,0,0.67,0.08,0.92,0.24s0.44,0.38,0.57,0.66
				c0.13,0.28,0.19,0.61,0.19,0.98s-0.06,0.7-0.19,0.98c-0.13,0.28-0.32,0.5-0.57,0.66C-521.39,183.3-521.7,183.38-522.06,183.38z
				 M-522.06,182.96c0.27,0,0.49-0.06,0.67-0.18s0.31-0.29,0.4-0.51c0.09-0.22,0.13-0.47,0.13-0.76c0-0.29-0.04-0.54-0.13-0.76
				c-0.09-0.22-0.22-0.39-0.4-0.51c-0.18-0.12-0.4-0.18-0.67-0.18s-0.49,0.06-0.67,0.18c-0.18,0.12-0.31,0.29-0.4,0.51
				c-0.09,0.22-0.14,0.47-0.14,0.76c0,0.29,0.04,0.54,0.13,0.75s0.22,0.39,0.4,0.51C-522.55,182.89-522.33,182.96-522.06,182.96z"/>
			<path class="st2" d="M-519.88,183.31v-2.7h0.4v0.65l-0.06-0.08c0.03-0.08,0.07-0.16,0.12-0.23c0.05-0.07,0.11-0.13,0.17-0.17
				c0.07-0.06,0.15-0.1,0.24-0.13c0.09-0.03,0.18-0.05,0.27-0.05c0.09-0.01,0.18,0,0.26,0.02v0.42c-0.09-0.02-0.2-0.03-0.31-0.02
				c-0.11,0.01-0.21,0.05-0.31,0.12c-0.09,0.06-0.15,0.14-0.2,0.23c-0.05,0.09-0.08,0.18-0.1,0.29s-0.03,0.21-0.03,0.31v1.36
				H-519.88z"/>
			<path class="st2" d="M-517.24,183.38c-0.2,0-0.37-0.04-0.51-0.11s-0.24-0.17-0.31-0.29c-0.07-0.12-0.1-0.25-0.1-0.4
				c0-0.14,0.03-0.26,0.08-0.37c0.05-0.1,0.13-0.19,0.23-0.26c0.1-0.07,0.22-0.12,0.35-0.17c0.13-0.04,0.27-0.07,0.43-0.09
				c0.16-0.03,0.32-0.05,0.48-0.07c0.16-0.02,0.32-0.04,0.46-0.06l-0.16,0.09c0-0.24-0.04-0.42-0.15-0.53
				c-0.1-0.12-0.27-0.17-0.52-0.17c-0.16,0-0.31,0.04-0.43,0.11c-0.12,0.07-0.21,0.19-0.26,0.36l-0.42-0.13
				c0.07-0.24,0.19-0.42,0.38-0.56s0.43-0.2,0.74-0.2c0.25,0,0.46,0.04,0.63,0.13c0.18,0.09,0.3,0.22,0.38,0.4
				c0.04,0.08,0.06,0.17,0.07,0.27c0.01,0.1,0.02,0.2,0.02,0.31v1.67h-0.4v-0.65l0.09,0.06c-0.1,0.22-0.24,0.39-0.43,0.5
				C-516.76,183.33-516.98,183.38-517.24,183.38z M-517.18,183.01c0.16,0,0.3-0.03,0.42-0.09c0.12-0.06,0.21-0.13,0.28-0.23
				c0.07-0.09,0.12-0.2,0.14-0.31c0.02-0.08,0.04-0.18,0.04-0.28c0-0.1,0-0.18,0-0.24l0.15,0.07c-0.14,0.02-0.29,0.04-0.43,0.06
				c-0.14,0.02-0.27,0.04-0.4,0.06s-0.24,0.04-0.34,0.07c-0.07,0.02-0.14,0.05-0.21,0.09c-0.06,0.04-0.12,0.08-0.16,0.14
				c-0.04,0.06-0.06,0.13-0.06,0.21c0,0.07,0.02,0.14,0.06,0.21c0.04,0.07,0.1,0.12,0.17,0.16
				C-517.41,182.99-517.3,183.01-517.18,183.01z"/>
			<path class="st2" d="M-515.2,183.31v-2.7h0.4v0.72h0.05v1.98H-515.2z M-513.28,183.31v-1.35c0-0.13-0.01-0.25-0.04-0.37
				s-0.06-0.23-0.12-0.32s-0.13-0.17-0.22-0.22c-0.09-0.06-0.21-0.08-0.36-0.08c-0.11,0-0.21,0.02-0.3,0.06s-0.17,0.1-0.23,0.17
				c-0.07,0.08-0.12,0.17-0.15,0.29c-0.04,0.12-0.05,0.25-0.05,0.41l-0.29-0.09c0-0.26,0.05-0.48,0.14-0.67
				c0.09-0.19,0.23-0.33,0.4-0.43c0.17-0.1,0.37-0.15,0.6-0.15c0.17,0,0.32,0.03,0.45,0.08c0.12,0.05,0.23,0.13,0.31,0.22
				c0.08,0.09,0.15,0.19,0.19,0.31c0.05,0.11,0.08,0.23,0.1,0.34c0.02,0.12,0.03,0.23,0.03,0.33v1.49H-513.28z"/>
			<path class="st2" d="M-511.12,183.38c-0.25,0-0.47-0.06-0.65-0.19c-0.18-0.12-0.32-0.3-0.42-0.51c-0.1-0.22-0.15-0.46-0.15-0.73
				c0-0.27,0.05-0.51,0.15-0.73c0.1-0.21,0.24-0.38,0.42-0.51c0.18-0.12,0.39-0.19,0.64-0.19c0.25,0,0.47,0.06,0.64,0.19
				c0.17,0.12,0.3,0.29,0.39,0.51c0.09,0.21,0.13,0.46,0.13,0.73c0,0.27-0.04,0.51-0.13,0.73c-0.09,0.21-0.22,0.39-0.39,0.51
				C-510.65,183.32-510.86,183.38-511.12,183.38z M-511.08,184.58c-0.14,0-0.28-0.02-0.42-0.07s-0.26-0.11-0.37-0.2
				s-0.21-0.2-0.28-0.33l0.41-0.21c0.07,0.13,0.16,0.23,0.28,0.29c0.12,0.06,0.25,0.09,0.38,0.09c0.17,0,0.31-0.03,0.43-0.09
				s0.2-0.16,0.25-0.28c0.06-0.12,0.08-0.28,0.08-0.46v-0.74h0.05v-1.98h0.4v2.72c0,0.08,0,0.15-0.01,0.21s-0.01,0.13-0.03,0.2
				c-0.04,0.19-0.1,0.35-0.21,0.47s-0.24,0.22-0.4,0.28S-510.87,184.58-511.08,184.58z M-511.06,182.97c0.18,0,0.33-0.04,0.45-0.13
				c0.12-0.09,0.2-0.21,0.26-0.36c0.06-0.15,0.08-0.33,0.08-0.53c0-0.2-0.03-0.37-0.08-0.53s-0.14-0.27-0.26-0.36
				c-0.11-0.09-0.26-0.13-0.44-0.13c-0.18,0-0.33,0.04-0.45,0.13s-0.21,0.21-0.26,0.37s-0.09,0.32-0.09,0.51
				c0,0.19,0.03,0.36,0.09,0.52s0.15,0.28,0.26,0.37C-511.38,182.93-511.24,182.97-511.06,182.97z"/>
			<path class="st2" d="M-508.01,183.38c-0.26,0-0.5-0.06-0.69-0.18c-0.2-0.12-0.35-0.28-0.46-0.49c-0.11-0.21-0.17-0.46-0.17-0.74
				c0-0.3,0.05-0.55,0.16-0.77s0.26-0.38,0.45-0.5s0.42-0.18,0.68-0.18c0.27,0,0.5,0.06,0.69,0.19c0.19,0.12,0.33,0.3,0.43,0.54
				s0.14,0.51,0.12,0.83h-0.45v-0.16c0-0.33-0.07-0.58-0.2-0.74s-0.32-0.25-0.58-0.25c-0.27,0-0.48,0.09-0.63,0.26
				s-0.21,0.43-0.21,0.76c0,0.32,0.07,0.56,0.21,0.74c0.14,0.18,0.35,0.26,0.61,0.26c0.18,0,0.33-0.04,0.46-0.12
				c0.13-0.08,0.24-0.2,0.31-0.35l0.43,0.15c-0.1,0.24-0.26,0.42-0.47,0.55S-507.75,183.38-508.01,183.38z M-509,182.08v-0.36h2
				v0.36H-509z"/>
		</g>
	</g>
	<g>
		<g>
			<path class="st2" d="M-558.47,148.57c-0.26,0-0.49-0.04-0.69-0.13c-0.2-0.09-0.37-0.21-0.5-0.37c-0.13-0.16-0.22-0.35-0.26-0.57
				l0.46-0.07c0.06,0.23,0.18,0.4,0.36,0.53c0.18,0.13,0.4,0.19,0.65,0.19c0.16,0,0.31-0.03,0.44-0.08
				c0.13-0.05,0.23-0.12,0.31-0.22c0.08-0.09,0.12-0.21,0.12-0.34c0-0.08-0.01-0.15-0.04-0.2c-0.03-0.06-0.07-0.11-0.11-0.15
				c-0.05-0.04-0.1-0.07-0.16-0.1c-0.06-0.03-0.12-0.05-0.19-0.07l-0.92-0.27c-0.1-0.03-0.2-0.07-0.29-0.11
				c-0.09-0.05-0.18-0.1-0.25-0.17s-0.13-0.15-0.17-0.25c-0.04-0.1-0.06-0.21-0.06-0.35c0-0.21,0.05-0.39,0.17-0.54
				c0.11-0.15,0.26-0.27,0.45-0.35c0.19-0.08,0.4-0.12,0.64-0.12c0.24,0,0.46,0.04,0.65,0.13c0.19,0.08,0.35,0.21,0.48,0.36
				c0.12,0.16,0.21,0.34,0.25,0.56l-0.47,0.08c-0.03-0.15-0.08-0.27-0.17-0.38s-0.19-0.19-0.32-0.25c-0.13-0.06-0.27-0.09-0.42-0.09
				c-0.15,0-0.28,0.02-0.4,0.07c-0.12,0.05-0.21,0.12-0.28,0.2c-0.07,0.09-0.1,0.18-0.1,0.29c0,0.11,0.03,0.2,0.09,0.27
				s0.14,0.12,0.23,0.16c0.09,0.04,0.18,0.07,0.27,0.1l0.69,0.2c0.08,0.02,0.17,0.05,0.27,0.09c0.1,0.04,0.2,0.09,0.3,0.16
				s0.18,0.16,0.24,0.27s0.09,0.26,0.09,0.43c0,0.17-0.03,0.33-0.1,0.46c-0.07,0.14-0.17,0.25-0.29,0.34
				c-0.12,0.09-0.27,0.16-0.43,0.21S-558.28,148.57-558.47,148.57z"/>
			<path class="st2" d="M-555.57,148.56c-0.17,0-0.32-0.03-0.45-0.08c-0.12-0.05-0.23-0.13-0.31-0.22c-0.08-0.09-0.15-0.19-0.19-0.3
				c-0.05-0.11-0.08-0.23-0.1-0.34c-0.02-0.12-0.03-0.23-0.03-0.33v-1.49h0.45v1.35c0,0.13,0.01,0.25,0.04,0.37
				c0.02,0.12,0.06,0.23,0.12,0.32c0.06,0.09,0.13,0.17,0.23,0.23c0.09,0.05,0.21,0.08,0.35,0.08c0.11,0,0.21-0.02,0.3-0.06
				s0.17-0.1,0.23-0.17c0.07-0.08,0.12-0.17,0.15-0.29c0.04-0.12,0.05-0.25,0.05-0.41l0.29,0.09c0,0.26-0.05,0.48-0.14,0.67
				c-0.09,0.19-0.23,0.33-0.4,0.43S-555.34,148.56-555.57,148.56z M-554.67,148.49v-0.72h-0.05v-1.98h0.45v2.7H-554.67z"/>
			<path class="st2" d="M-553.52,148.49v-3.67h0.44v3.67H-553.52z"/>
			<path class="st2" d="M-552.28,148.49v-3.67h0.44v3.67H-552.28z"/>
			<path class="st2" d="M-551.03,145.31v-0.46h0.44v0.46H-551.03z M-551.03,148.49v-2.7h0.44v2.7H-551.03z"/>
			<path class="st2" d="M-549.11,148.49l-0.98-2.7h0.45l0.76,2.13l0.75-2.13h0.45l-0.98,2.7H-549.11z"/>
			<path class="st2" d="M-546.46,148.57c-0.2,0-0.37-0.04-0.51-0.11s-0.24-0.17-0.31-0.29c-0.07-0.12-0.1-0.25-0.1-0.4
				c0-0.14,0.03-0.26,0.08-0.37c0.05-0.1,0.13-0.19,0.23-0.26c0.1-0.07,0.22-0.12,0.35-0.17c0.13-0.04,0.27-0.07,0.43-0.09
				c0.16-0.03,0.32-0.05,0.48-0.07c0.16-0.02,0.32-0.04,0.46-0.06l-0.16,0.09c0-0.24-0.04-0.42-0.15-0.53
				c-0.1-0.12-0.27-0.17-0.52-0.17c-0.16,0-0.31,0.04-0.43,0.11c-0.12,0.07-0.21,0.19-0.26,0.36l-0.42-0.13
				c0.07-0.24,0.19-0.42,0.38-0.56s0.43-0.2,0.74-0.2c0.25,0,0.46,0.04,0.63,0.13c0.18,0.09,0.3,0.22,0.38,0.4
				c0.04,0.08,0.06,0.17,0.07,0.27c0.01,0.1,0.02,0.2,0.02,0.31v1.67h-0.4v-0.65l0.09,0.06c-0.1,0.22-0.24,0.39-0.43,0.5
				C-545.97,148.51-546.2,148.57-546.46,148.57z M-546.39,148.19c0.16,0,0.3-0.03,0.42-0.09c0.12-0.06,0.21-0.13,0.28-0.23
				c0.07-0.09,0.12-0.2,0.14-0.31c0.02-0.08,0.04-0.18,0.04-0.28c0-0.1,0-0.18,0-0.24l0.15,0.07c-0.14,0.02-0.29,0.04-0.43,0.06
				c-0.14,0.02-0.27,0.04-0.4,0.06s-0.24,0.04-0.34,0.07c-0.07,0.02-0.14,0.05-0.21,0.09c-0.06,0.04-0.12,0.08-0.16,0.14
				c-0.04,0.06-0.06,0.13-0.06,0.21c0,0.07,0.02,0.14,0.06,0.21c0.04,0.07,0.1,0.12,0.17,0.16
				C-546.62,148.17-546.52,148.19-546.39,148.19z"/>
			<path class="st2" d="M-544.41,148.49v-2.7h0.4v0.72h0.05v1.98H-544.41z M-542.49,148.49v-1.35c0-0.13-0.01-0.25-0.04-0.37
				s-0.06-0.23-0.12-0.32s-0.13-0.17-0.22-0.22c-0.09-0.06-0.21-0.08-0.36-0.08c-0.11,0-0.21,0.02-0.3,0.06s-0.17,0.1-0.23,0.17
				c-0.07,0.08-0.12,0.17-0.15,0.29c-0.04,0.12-0.05,0.25-0.05,0.41l-0.29-0.09c0-0.26,0.05-0.48,0.14-0.67
				c0.09-0.19,0.23-0.33,0.4-0.43c0.17-0.1,0.37-0.15,0.6-0.15c0.17,0,0.32,0.03,0.45,0.08c0.12,0.05,0.23,0.13,0.31,0.22
				c0.08,0.09,0.15,0.19,0.19,0.31c0.05,0.11,0.08,0.23,0.1,0.34c0.02,0.12,0.03,0.23,0.03,0.33v1.49H-542.49z"/>
		</g>
	</g>
	<g>
		<g>
			<path class="st2" d="M-484.64,141.63v-3.6h1.11c0.04,0,0.1,0,0.19,0s0.18,0.01,0.26,0.02c0.28,0.04,0.51,0.14,0.7,0.3
				s0.33,0.38,0.42,0.63c0.1,0.26,0.14,0.54,0.14,0.84c0,0.31-0.05,0.59-0.14,0.84c-0.09,0.26-0.24,0.47-0.42,0.63
				s-0.42,0.27-0.7,0.3c-0.08,0.01-0.17,0.02-0.26,0.02c-0.09,0-0.16,0-0.19,0H-484.64z M-484.18,141.21h0.65
				c0.06,0,0.13,0,0.21-0.01c0.08,0,0.15-0.01,0.21-0.02c0.2-0.04,0.36-0.12,0.48-0.25c0.12-0.13,0.21-0.29,0.27-0.48
				c0.06-0.19,0.08-0.4,0.08-0.62c0-0.23-0.03-0.44-0.09-0.63c-0.06-0.19-0.15-0.35-0.27-0.48c-0.12-0.13-0.28-0.21-0.47-0.24
				c-0.06-0.01-0.13-0.02-0.21-0.02s-0.15,0-0.21,0h-0.65V141.21z"/>
			<path class="st2" d="M-480.21,141.7c-0.17,0-0.32-0.03-0.45-0.08c-0.12-0.05-0.23-0.13-0.31-0.22c-0.08-0.09-0.15-0.19-0.19-0.3
				c-0.05-0.11-0.08-0.23-0.1-0.34c-0.02-0.12-0.03-0.23-0.03-0.33v-1.49h0.45v1.35c0,0.13,0.01,0.25,0.04,0.37
				c0.02,0.12,0.06,0.23,0.12,0.32c0.06,0.09,0.13,0.17,0.23,0.23c0.09,0.05,0.21,0.08,0.35,0.08c0.11,0,0.21-0.02,0.3-0.06
				s0.17-0.1,0.23-0.17c0.07-0.08,0.12-0.17,0.15-0.29c0.04-0.12,0.05-0.25,0.05-0.41l0.29,0.09c0,0.26-0.05,0.48-0.14,0.67
				c-0.09,0.19-0.23,0.33-0.4,0.43S-479.98,141.7-480.21,141.7z M-479.31,141.63v-0.72h-0.05v-1.98h0.45v2.7H-479.31z"/>
			<path class="st2" d="M-478.51,139.3v-0.37h1.81v0.37H-478.51z M-476.71,141.63c-0.16,0.03-0.32,0.05-0.47,0.04
				s-0.29-0.04-0.42-0.09c-0.12-0.06-0.21-0.15-0.28-0.27c-0.05-0.11-0.08-0.21-0.09-0.32c0-0.11-0.01-0.23-0.01-0.37v-2.43h0.45
				v2.41c0,0.11,0,0.2,0,0.28c0,0.08,0.02,0.15,0.05,0.2c0.06,0.11,0.16,0.17,0.29,0.19c0.13,0.02,0.29,0.01,0.47-0.02V141.63z"/>
			<path class="st2" d="M-475.02,141.71c-0.27,0-0.5-0.06-0.7-0.18c-0.19-0.12-0.34-0.29-0.44-0.51s-0.15-0.46-0.15-0.73
				c0-0.28,0.05-0.53,0.16-0.74c0.1-0.21,0.25-0.38,0.44-0.5s0.42-0.18,0.69-0.18c0.29,0,0.53,0.07,0.74,0.21
				c0.21,0.14,0.34,0.33,0.41,0.58l-0.44,0.13c-0.06-0.16-0.15-0.28-0.28-0.37c-0.13-0.09-0.27-0.13-0.44-0.13
				c-0.18,0-0.34,0.04-0.46,0.13s-0.21,0.2-0.27,0.35c-0.06,0.15-0.09,0.32-0.09,0.52c0,0.3,0.07,0.54,0.21,0.73
				c0.14,0.18,0.34,0.28,0.61,0.28c0.18,0,0.32-0.04,0.44-0.12c0.12-0.08,0.21-0.2,0.27-0.35l0.45,0.12
				c-0.09,0.25-0.24,0.44-0.44,0.58S-474.74,141.71-475.02,141.71z"/>
			<path class="st2" d="M-473.35,141.63v-3.6h0.4v1.99h0.05v1.61H-473.35z M-471.43,141.63v-1.35c0-0.13-0.01-0.25-0.04-0.37
				s-0.06-0.23-0.12-0.32s-0.13-0.17-0.22-0.22c-0.09-0.06-0.21-0.08-0.36-0.08c-0.11,0-0.21,0.02-0.3,0.06s-0.17,0.1-0.23,0.17
				c-0.07,0.08-0.12,0.17-0.15,0.29c-0.04,0.12-0.05,0.25-0.05,0.41l-0.29-0.09c0-0.26,0.05-0.48,0.14-0.67
				c0.09-0.19,0.23-0.33,0.4-0.43c0.17-0.1,0.37-0.15,0.6-0.15c0.17,0,0.32,0.03,0.45,0.08c0.12,0.05,0.23,0.13,0.31,0.22
				c0.08,0.09,0.15,0.19,0.19,0.31c0.05,0.11,0.08,0.23,0.1,0.34c0.02,0.12,0.03,0.23,0.03,0.33v1.49H-471.43z"/>
			<path class="st2" d="M-469.16,141.71c-0.26,0-0.5-0.06-0.69-0.18c-0.2-0.12-0.35-0.28-0.46-0.49c-0.11-0.21-0.17-0.46-0.17-0.74
				c0-0.3,0.05-0.55,0.16-0.77s0.26-0.38,0.45-0.5s0.42-0.18,0.68-0.18c0.27,0,0.5,0.06,0.69,0.19c0.19,0.12,0.33,0.3,0.43,0.54
				s0.14,0.51,0.12,0.83h-0.45v-0.16c0-0.33-0.07-0.58-0.2-0.74s-0.32-0.25-0.58-0.25c-0.27,0-0.48,0.09-0.63,0.26
				s-0.21,0.43-0.21,0.76c0,0.32,0.07,0.56,0.21,0.74c0.14,0.18,0.35,0.26,0.61,0.26c0.18,0,0.33-0.04,0.46-0.12
				c0.13-0.08,0.24-0.2,0.31-0.35l0.43,0.15c-0.1,0.24-0.26,0.42-0.47,0.55S-468.9,141.71-469.16,141.71z M-470.16,140.41v-0.36h2
				v0.36H-470.16z"/>
			<path class="st2" d="M-466.36,141.71c-0.32,0-0.59-0.07-0.79-0.21c-0.21-0.14-0.33-0.34-0.38-0.59l0.46-0.07
				c0.04,0.15,0.12,0.26,0.25,0.35s0.29,0.13,0.49,0.13c0.18,0,0.33-0.04,0.43-0.12c0.11-0.08,0.16-0.18,0.16-0.31
				c0-0.07-0.02-0.14-0.05-0.18c-0.04-0.05-0.11-0.09-0.22-0.13c-0.11-0.04-0.27-0.09-0.49-0.15c-0.24-0.06-0.43-0.13-0.56-0.2
				s-0.23-0.15-0.29-0.24c-0.06-0.09-0.09-0.2-0.09-0.33c0-0.16,0.04-0.3,0.13-0.42c0.09-0.12,0.21-0.21,0.36-0.28
				c0.16-0.07,0.34-0.1,0.54-0.1c0.21,0,0.39,0.03,0.55,0.1c0.16,0.07,0.29,0.16,0.39,0.28c0.1,0.12,0.16,0.26,0.18,0.42l-0.46,0.08
				c-0.02-0.14-0.09-0.26-0.21-0.34c-0.12-0.08-0.27-0.13-0.45-0.13c-0.17,0-0.32,0.03-0.43,0.1s-0.16,0.16-0.16,0.27
				c0,0.07,0.02,0.12,0.06,0.17s0.12,0.09,0.23,0.13c0.11,0.04,0.27,0.09,0.48,0.14c0.24,0.06,0.43,0.13,0.56,0.2
				c0.14,0.07,0.24,0.15,0.29,0.25c0.06,0.1,0.09,0.21,0.09,0.35c0,0.26-0.1,0.46-0.29,0.61
				C-465.76,141.63-466.02,141.71-466.36,141.71z"/>
			<path class="st2" d="M-463.71,141.71c-0.32,0-0.59-0.07-0.79-0.21c-0.21-0.14-0.33-0.34-0.38-0.59l0.46-0.07
				c0.04,0.15,0.12,0.26,0.25,0.35s0.29,0.13,0.49,0.13c0.18,0,0.33-0.04,0.43-0.12c0.11-0.08,0.16-0.18,0.16-0.31
				c0-0.07-0.02-0.14-0.05-0.18c-0.04-0.05-0.11-0.09-0.22-0.13c-0.11-0.04-0.27-0.09-0.49-0.15c-0.24-0.06-0.43-0.13-0.56-0.2
				s-0.23-0.15-0.29-0.24c-0.06-0.09-0.09-0.2-0.09-0.33c0-0.16,0.04-0.3,0.13-0.42c0.09-0.12,0.21-0.21,0.36-0.28
				c0.16-0.07,0.34-0.1,0.54-0.1c0.21,0,0.39,0.03,0.55,0.1c0.16,0.07,0.29,0.16,0.39,0.28c0.1,0.12,0.16,0.26,0.18,0.42l-0.46,0.08
				c-0.02-0.14-0.09-0.26-0.21-0.34c-0.12-0.08-0.27-0.13-0.45-0.13c-0.17,0-0.32,0.03-0.43,0.1s-0.16,0.16-0.16,0.27
				c0,0.07,0.02,0.12,0.06,0.17s0.12,0.09,0.23,0.13c0.11,0.04,0.27,0.09,0.48,0.14c0.24,0.06,0.43,0.13,0.56,0.2
				c0.14,0.07,0.24,0.15,0.29,0.25c0.06,0.1,0.09,0.21,0.09,0.35c0,0.26-0.1,0.46-0.29,0.61
				C-463.1,141.63-463.37,141.71-463.71,141.71z"/>
		</g>
	</g>
	<g>
		<g>
			<path class="st2" d="M-516.51,136.21c-0.28,0-0.52-0.06-0.74-0.17c-0.21-0.11-0.38-0.28-0.5-0.48s-0.18-0.45-0.18-0.73v-2.29
				l0.45,0v2.25c0,0.17,0.03,0.32,0.09,0.44c0.06,0.13,0.13,0.23,0.23,0.31c0.09,0.08,0.2,0.15,0.31,0.19s0.23,0.06,0.34,0.06
				c0.12,0,0.23-0.02,0.34-0.06c0.11-0.04,0.22-0.1,0.31-0.19c0.09-0.08,0.17-0.19,0.23-0.31c0.06-0.13,0.09-0.27,0.09-0.44v-2.25
				h0.45v2.29c0,0.28-0.06,0.52-0.18,0.73s-0.29,0.37-0.5,0.48C-515.99,136.15-516.23,136.21-516.51,136.21z"/>
			<path class="st2" d="M-514.34,136.14v-3.67h0.44v3.67H-514.34z"/>
			<path class="st2" d="M-512.12,136.21c-0.32,0-0.59-0.07-0.79-0.21c-0.21-0.14-0.33-0.34-0.38-0.59l0.46-0.07
				c0.04,0.15,0.12,0.26,0.25,0.35s0.29,0.13,0.49,0.13c0.18,0,0.33-0.04,0.43-0.11c0.11-0.08,0.16-0.18,0.16-0.31
				c0-0.08-0.02-0.14-0.05-0.18c-0.04-0.05-0.11-0.09-0.22-0.13c-0.11-0.04-0.27-0.09-0.49-0.15c-0.24-0.06-0.43-0.13-0.56-0.2
				c-0.14-0.07-0.23-0.15-0.29-0.24c-0.06-0.09-0.09-0.2-0.09-0.33c0-0.16,0.04-0.3,0.13-0.42c0.09-0.12,0.21-0.21,0.36-0.28
				c0.16-0.07,0.34-0.1,0.54-0.1c0.21,0,0.39,0.03,0.55,0.1c0.16,0.07,0.29,0.16,0.39,0.28c0.1,0.12,0.16,0.26,0.18,0.42l-0.46,0.08
				c-0.02-0.14-0.09-0.26-0.21-0.34c-0.12-0.08-0.27-0.13-0.45-0.13c-0.17,0-0.32,0.03-0.43,0.09c-0.11,0.07-0.16,0.16-0.16,0.28
				c0,0.07,0.02,0.12,0.06,0.17s0.12,0.09,0.23,0.13c0.11,0.04,0.27,0.09,0.48,0.14c0.24,0.06,0.43,0.13,0.56,0.2
				c0.14,0.07,0.24,0.15,0.29,0.25s0.09,0.21,0.09,0.35c0,0.26-0.1,0.46-0.29,0.61C-511.52,136.14-511.79,136.21-512.12,136.21z"/>
			<path class="st2" d="M-510.79,133.8v-0.37h1.81v0.37H-510.79z M-508.98,136.14c-0.16,0.03-0.32,0.05-0.47,0.04
				s-0.29-0.04-0.42-0.09c-0.12-0.06-0.21-0.15-0.28-0.27c-0.05-0.11-0.08-0.21-0.09-0.32c0-0.11-0.01-0.23-0.01-0.37v-2.43h0.45
				v2.41c0,0.11,0,0.2,0,0.28c0,0.08,0.02,0.15,0.05,0.2c0.06,0.11,0.16,0.17,0.29,0.19c0.13,0.02,0.29,0.01,0.47-0.01V136.14z"/>
			<path class="st2" d="M-507.27,136.21c-0.26,0-0.5-0.06-0.69-0.18c-0.2-0.12-0.35-0.28-0.46-0.49c-0.11-0.21-0.17-0.46-0.17-0.74
				c0-0.29,0.05-0.55,0.16-0.77s0.26-0.38,0.45-0.5c0.19-0.12,0.42-0.18,0.68-0.18c0.27,0,0.5,0.06,0.69,0.19
				c0.19,0.12,0.33,0.3,0.43,0.53c0.1,0.23,0.14,0.51,0.12,0.83h-0.45v-0.16c0-0.33-0.07-0.58-0.2-0.74
				c-0.13-0.16-0.32-0.25-0.58-0.25c-0.27,0-0.48,0.09-0.63,0.27s-0.21,0.43-0.21,0.76c0,0.32,0.07,0.56,0.21,0.74
				c0.14,0.17,0.35,0.26,0.61,0.26c0.18,0,0.33-0.04,0.46-0.12c0.13-0.08,0.24-0.2,0.31-0.35l0.43,0.15
				c-0.1,0.24-0.26,0.42-0.47,0.55S-507,136.21-507.27,136.21z M-508.26,134.91v-0.36h2v0.36H-508.26z"/>
			<path class="st2" d="M-505.48,136.14v-2.7h0.4v0.65l-0.06-0.08c0.03-0.08,0.07-0.16,0.12-0.23c0.05-0.07,0.11-0.13,0.17-0.17
				c0.07-0.06,0.15-0.1,0.24-0.13c0.09-0.03,0.18-0.05,0.27-0.05c0.09-0.01,0.18,0,0.26,0.02v0.42c-0.09-0.02-0.2-0.03-0.31-0.02
				c-0.11,0.01-0.21,0.05-0.31,0.12c-0.09,0.06-0.15,0.14-0.2,0.23s-0.08,0.18-0.1,0.28s-0.03,0.21-0.03,0.31v1.35H-505.48z"/>
		</g>
	</g>
	<g>
		<g>
			<path class="st2" d="M-474.19,97.98c-0.36,0-0.66-0.08-0.91-0.24s-0.44-0.38-0.57-0.66s-0.2-0.61-0.2-0.98s0.07-0.7,0.2-0.98
				c0.13-0.28,0.32-0.5,0.57-0.66s0.55-0.24,0.91-0.24c0.42,0,0.76,0.11,1.03,0.32c0.27,0.21,0.46,0.5,0.56,0.86l-0.45,0.12
				c-0.07-0.27-0.21-0.48-0.39-0.64c-0.19-0.15-0.43-0.23-0.74-0.23c-0.27,0-0.49,0.06-0.67,0.18c-0.18,0.12-0.31,0.29-0.4,0.51
				c-0.09,0.22-0.14,0.47-0.14,0.76c0,0.29,0.04,0.54,0.13,0.76c0.09,0.22,0.22,0.39,0.4,0.51c0.18,0.12,0.4,0.18,0.67,0.18
				c0.3,0,0.55-0.08,0.74-0.23c0.19-0.16,0.32-0.37,0.39-0.63l0.45,0.12c-0.1,0.36-0.29,0.64-0.56,0.86
				C-473.43,97.87-473.78,97.98-474.19,97.98z"/>
			<path class="st2" d="M-470.91,97.98c-0.27,0-0.5-0.06-0.69-0.18c-0.19-0.12-0.34-0.29-0.45-0.5c-0.1-0.21-0.16-0.46-0.16-0.74
				c0-0.28,0.05-0.53,0.16-0.74c0.11-0.21,0.26-0.38,0.45-0.5s0.42-0.18,0.69-0.18c0.27,0,0.5,0.06,0.7,0.18
				c0.2,0.12,0.34,0.29,0.45,0.5c0.1,0.21,0.16,0.46,0.16,0.74c0,0.28-0.05,0.53-0.16,0.74c-0.1,0.21-0.25,0.38-0.45,0.5
				C-470.41,97.92-470.64,97.98-470.91,97.98z M-470.91,97.55c0.28,0,0.49-0.09,0.62-0.28s0.21-0.43,0.21-0.73
				c0-0.3-0.07-0.55-0.21-0.73c-0.14-0.18-0.35-0.27-0.62-0.27c-0.19,0-0.34,0.04-0.46,0.13c-0.12,0.08-0.21,0.2-0.27,0.35
				c-0.06,0.15-0.09,0.32-0.09,0.52c0,0.3,0.07,0.55,0.21,0.73C-471.39,97.46-471.18,97.55-470.91,97.55z"/>
			<path class="st2" d="M-469.01,97.9v-3.67h0.44v3.67H-469.01z"/>
			<path class="st2" d="M-466.79,97.97c-0.17,0-0.32-0.03-0.45-0.08c-0.12-0.05-0.23-0.13-0.31-0.22c-0.08-0.09-0.15-0.19-0.19-0.3
				s-0.08-0.23-0.1-0.34c-0.02-0.12-0.03-0.23-0.03-0.33V95.2h0.45v1.35c0,0.13,0.01,0.25,0.04,0.37s0.06,0.22,0.12,0.32
				c0.06,0.1,0.13,0.17,0.23,0.23c0.09,0.05,0.21,0.08,0.35,0.08c0.11,0,0.21-0.02,0.3-0.06c0.09-0.04,0.17-0.09,0.23-0.17
				c0.07-0.08,0.12-0.17,0.15-0.29c0.04-0.12,0.05-0.25,0.05-0.41l0.29,0.09c0,0.26-0.05,0.48-0.14,0.67
				c-0.09,0.19-0.23,0.33-0.4,0.43S-466.55,97.97-466.79,97.97z M-465.89,97.9v-0.72h-0.05V95.2h0.45v2.7H-465.89z"/>
			<path class="st2" d="M-464.79,97.9v-2.7h0.4v0.72h0.05v1.98H-464.79z M-463.17,97.9l0-1.71c0-0.21-0.05-0.37-0.16-0.48
				c-0.11-0.12-0.25-0.18-0.42-0.18c-0.18,0-0.32,0.06-0.43,0.18c-0.11,0.12-0.16,0.28-0.16,0.48l-0.24-0.14
				c0-0.17,0.04-0.33,0.12-0.47c0.08-0.14,0.2-0.25,0.34-0.33c0.14-0.08,0.31-0.12,0.49-0.12s0.34,0.04,0.47,0.12
				c0.13,0.08,0.24,0.19,0.31,0.33s0.11,0.31,0.11,0.51l0,1.82H-463.17z M-461.56,97.9l0-1.73c0-0.2-0.05-0.36-0.16-0.47
				s-0.25-0.17-0.42-0.17c-0.1,0-0.2,0.02-0.29,0.07c-0.09,0.05-0.16,0.12-0.22,0.22s-0.08,0.22-0.08,0.37l-0.24-0.09
				c0-0.19,0.04-0.36,0.12-0.5c0.08-0.14,0.2-0.26,0.34-0.34c0.14-0.08,0.3-0.12,0.48-0.12c0.28,0,0.5,0.09,0.67,0.26
				c0.16,0.17,0.24,0.4,0.24,0.69l0,1.83H-461.56z"/>
			<path class="st2" d="M-460.47,97.9v-3.6h0.45v1.61h-0.05v1.99H-460.47z M-459.22,97.98c-0.25,0-0.47-0.06-0.64-0.19
				c-0.17-0.13-0.3-0.3-0.39-0.51c-0.09-0.21-0.13-0.46-0.13-0.73c0-0.27,0.04-0.51,0.13-0.73c0.09-0.21,0.22-0.38,0.39-0.51
				c0.17-0.12,0.39-0.19,0.64-0.19c0.25,0,0.46,0.06,0.65,0.19c0.18,0.12,0.32,0.29,0.42,0.51s0.14,0.46,0.14,0.73
				c0,0.27-0.05,0.51-0.14,0.73s-0.24,0.39-0.42,0.51C-458.76,97.92-458.97,97.98-459.22,97.98z M-459.28,97.57
				c0.18,0,0.32-0.04,0.44-0.13c0.12-0.09,0.21-0.21,0.26-0.37c0.06-0.15,0.09-0.33,0.09-0.52c0-0.19-0.03-0.36-0.09-0.51
				c-0.06-0.15-0.15-0.28-0.27-0.37c-0.12-0.09-0.27-0.13-0.45-0.13c-0.17,0-0.32,0.04-0.43,0.13c-0.12,0.09-0.2,0.21-0.26,0.36
				s-0.08,0.33-0.08,0.53c0,0.2,0.03,0.37,0.08,0.53c0.06,0.15,0.14,0.28,0.26,0.36C-459.61,97.53-459.46,97.57-459.28,97.57z"/>
			<path class="st2" d="M-457.41,94.72v-0.46h0.44v0.46H-457.41z M-457.41,97.9v-2.7h0.44v2.7H-457.41z"/>
			<path class="st2" d="M-455.45,97.98c-0.2,0-0.37-0.04-0.51-0.11s-0.24-0.17-0.31-0.29c-0.07-0.12-0.1-0.25-0.1-0.4
				c0-0.14,0.03-0.26,0.08-0.37c0.05-0.1,0.13-0.19,0.23-0.26c0.1-0.07,0.22-0.12,0.35-0.17c0.13-0.04,0.27-0.07,0.43-0.09
				c0.16-0.03,0.32-0.05,0.48-0.07c0.16-0.02,0.32-0.04,0.46-0.06l-0.16,0.09c0-0.24-0.04-0.42-0.15-0.53
				c-0.1-0.12-0.27-0.17-0.52-0.17c-0.16,0-0.31,0.04-0.43,0.11c-0.12,0.08-0.21,0.19-0.26,0.36l-0.42-0.13
				c0.07-0.24,0.19-0.42,0.38-0.56s0.43-0.2,0.74-0.2c0.25,0,0.46,0.04,0.63,0.13s0.3,0.22,0.38,0.4c0.04,0.08,0.06,0.17,0.07,0.27
				c0.01,0.1,0.02,0.2,0.02,0.31v1.67h-0.4v-0.65l0.09,0.06c-0.1,0.22-0.24,0.38-0.43,0.5C-454.97,97.92-455.19,97.98-455.45,97.98z
				 M-455.38,97.61c0.16,0,0.3-0.03,0.42-0.09c0.12-0.06,0.21-0.13,0.28-0.23c0.07-0.09,0.12-0.2,0.14-0.31
				c0.02-0.08,0.04-0.18,0.04-0.28c0-0.1,0-0.18,0-0.24l0.15,0.07c-0.14,0.02-0.29,0.04-0.43,0.06c-0.14,0.02-0.27,0.04-0.4,0.06
				c-0.12,0.02-0.24,0.04-0.34,0.07c-0.07,0.02-0.14,0.05-0.21,0.09c-0.06,0.04-0.12,0.08-0.16,0.14s-0.06,0.13-0.06,0.21
				c0,0.07,0.02,0.14,0.06,0.21c0.04,0.07,0.1,0.12,0.17,0.16C-455.61,97.58-455.51,97.61-455.38,97.61z"/>
		</g>
	</g>
</g>
</svg>
