<svg version="1.1" id="Isolation_Mode" x="0px"
	 y="0px" viewBox="0 0 612 792" >
<polygon class="location1a" points="-220.32,414.17 -221.27,427.96 -225.48,427.6 -250,431.03 -253.8,435.97 -255.08,434.4 -254.77,427.31 
	-251.94,421.71 -250.86,408.08 -251.53,404.04 -250.9,395.16 -252.32,390.32 -250.58,374.23 -248.12,374.05 -235.83,381.14 
	-221.41,383.48 -221.02,377.05 -217.94,377.2 "/>
<path class="location1b" d="M-248.24,398.19c2.65,0,4.82,2.51,4.2,5.13c-0.51,2.15-2.82,4.17-4.19,5.75c-1.38-1.61-3.81-3.78-4.24-5.93
	C-252.99,400.59-250.79,398.19-248.24,398.19L-248.24,398.19z"/>
<g>
	<path class="location1c" d="M-287.43,401.56v-3.37h1.33c0.03,0,0.07,0,0.12,0c0.04,0,0.09,0.01,0.13,0.02c0.18,0.03,0.34,0.09,0.46,0.19
		s0.22,0.22,0.28,0.37c0.06,0.15,0.09,0.31,0.09,0.49c0,0.18-0.03,0.34-0.09,0.49c-0.06,0.15-0.16,0.27-0.28,0.37
		c-0.12,0.1-0.28,0.16-0.46,0.19c-0.04,0.01-0.09,0.01-0.13,0.01c-0.05,0-0.08,0-0.12,0h-0.91v1.24H-287.43z M-287.01,399.92h0.9
		c0.03,0,0.06,0,0.1,0s0.07-0.01,0.11-0.02c0.11-0.02,0.19-0.07,0.26-0.14s0.12-0.14,0.15-0.23c0.03-0.09,0.05-0.18,0.05-0.28
		s-0.02-0.18-0.05-0.27c-0.03-0.09-0.08-0.17-0.15-0.23s-0.15-0.11-0.26-0.14c-0.03-0.01-0.07-0.01-0.11-0.02c-0.04,0-0.07,0-0.1,0
		h-0.9V399.92z"/>
	<path class="location1c" d="M-283.5,401.63c-0.25,0-0.47-0.06-0.65-0.17c-0.18-0.11-0.32-0.27-0.42-0.47s-0.15-0.43-0.15-0.69
		c0-0.26,0.05-0.5,0.15-0.7c0.1-0.2,0.24-0.36,0.42-0.47c0.18-0.11,0.4-0.17,0.64-0.17c0.25,0,0.47,0.06,0.65,0.17
		c0.18,0.11,0.32,0.27,0.42,0.47c0.1,0.2,0.15,0.43,0.15,0.69c0,0.26-0.05,0.5-0.15,0.7c-0.1,0.2-0.24,0.36-0.42,0.47
		C-283.03,401.58-283.24,401.63-283.5,401.63z M-283.5,401.24c0.26,0,0.46-0.09,0.58-0.26c0.13-0.17,0.19-0.4,0.19-0.68
		c0-0.28-0.06-0.51-0.19-0.68s-0.32-0.25-0.58-0.25c-0.18,0-0.32,0.04-0.44,0.12c-0.11,0.08-0.2,0.19-0.25,0.33s-0.08,0.3-0.08,0.49
		c0,0.28,0.07,0.51,0.2,0.68C-283.94,401.15-283.75,401.24-283.5,401.24z"/>
	<path class="location1c" d="M-280.8,401.63c-0.16,0-0.3-0.03-0.42-0.08c-0.12-0.05-0.21-0.12-0.29-0.21c-0.08-0.09-0.14-0.18-0.18-0.29
		s-0.07-0.21-0.09-0.32c-0.02-0.11-0.03-0.21-0.03-0.31v-1.4h0.42v1.27c0,0.12,0.01,0.23,0.03,0.34s0.06,0.21,0.11,0.3
		s0.12,0.16,0.21,0.21c0.09,0.05,0.2,0.08,0.33,0.08c0.1,0,0.2-0.02,0.28-0.05c0.08-0.04,0.16-0.09,0.22-0.16
		c0.06-0.07,0.11-0.16,0.14-0.27c0.03-0.11,0.05-0.24,0.05-0.38l0.27,0.08c0,0.24-0.04,0.45-0.13,0.63
		c-0.09,0.18-0.21,0.31-0.37,0.41C-280.4,401.58-280.59,401.63-280.8,401.63z M-279.96,401.56v-0.68h-0.05v-1.85h0.42v2.53H-279.96z
		"/>
	<path class="location1c" d="M-277.94,401.63c-0.24,0-0.44-0.06-0.61-0.18s-0.3-0.28-0.39-0.48c-0.09-0.2-0.14-0.43-0.14-0.68
		s0.05-0.48,0.14-0.68c0.09-0.2,0.22-0.36,0.39-0.48s0.37-0.17,0.6-0.17c0.24,0,0.44,0.06,0.6,0.17s0.28,0.27,0.37,0.47
		s0.13,0.43,0.13,0.68c0,0.25-0.04,0.48-0.13,0.68s-0.21,0.36-0.37,0.48C-277.51,401.57-277.71,401.63-277.94,401.63z
		 M-277.91,402.75c-0.13,0-0.26-0.02-0.39-0.06c-0.13-0.04-0.24-0.1-0.35-0.18c-0.1-0.08-0.19-0.19-0.26-0.31l0.38-0.2
		c0.06,0.12,0.15,0.21,0.27,0.27c0.11,0.06,0.23,0.08,0.35,0.08c0.16,0,0.29-0.03,0.4-0.09c0.11-0.06,0.18-0.14,0.24-0.26
		c0.05-0.12,0.08-0.26,0.07-0.43v-0.69h0.05v-1.85h0.37v2.54c0,0.07,0,0.14-0.01,0.2c0,0.06-0.01,0.13-0.02,0.19
		c-0.03,0.18-0.1,0.33-0.19,0.44s-0.22,0.2-0.37,0.26S-277.71,402.75-277.91,402.75z M-277.89,401.25c0.17,0,0.31-0.04,0.42-0.12
		c0.11-0.08,0.19-0.19,0.24-0.34c0.05-0.14,0.08-0.31,0.08-0.49c0-0.19-0.03-0.35-0.08-0.49c-0.05-0.14-0.13-0.26-0.24-0.34
		s-0.24-0.12-0.41-0.12c-0.17,0-0.31,0.04-0.42,0.13c-0.11,0.08-0.19,0.2-0.25,0.34s-0.08,0.3-0.08,0.48c0,0.18,0.03,0.34,0.08,0.49
		s0.14,0.26,0.25,0.34C-278.19,401.21-278.06,401.25-277.89,401.25z"/>
	<path class="location1c" d="M-276.13,401.56v-3.37h0.37v1.86h0.05v1.51H-276.13z M-274.33,401.56v-1.27c0-0.12-0.01-0.23-0.03-0.34
		s-0.06-0.21-0.11-0.3s-0.12-0.16-0.21-0.21c-0.09-0.05-0.2-0.08-0.33-0.08c-0.1,0-0.2,0.02-0.28,0.05s-0.16,0.09-0.22,0.16
		c-0.06,0.07-0.11,0.16-0.14,0.27s-0.05,0.24-0.05,0.38l-0.27-0.08c0-0.24,0.04-0.45,0.13-0.63c0.09-0.18,0.21-0.31,0.37-0.41
		s0.35-0.14,0.56-0.14c0.16,0,0.3,0.03,0.42,0.08s0.21,0.12,0.29,0.21c0.08,0.09,0.14,0.18,0.18,0.29c0.04,0.1,0.07,0.21,0.09,0.32
		c0.02,0.11,0.03,0.21,0.03,0.31v1.4H-274.33z"/>
	<path class="location1c" d="M-273.3,401.56l0-3.37h0.42v2.06l1.06-1.22h0.54l-1.12,1.26l1.25,1.26h-0.58l-1.15-1.22v1.22H-273.3z"/>
	<path class="location1c" d="M-269.87,401.63c-0.25,0-0.46-0.06-0.65-0.17c-0.18-0.11-0.33-0.26-0.43-0.46c-0.1-0.2-0.15-0.43-0.15-0.69
		c0-0.28,0.05-0.51,0.15-0.72c0.1-0.2,0.24-0.36,0.42-0.47c0.18-0.11,0.4-0.17,0.64-0.17c0.25,0,0.47,0.06,0.65,0.18
		c0.18,0.12,0.31,0.28,0.4,0.5c0.09,0.22,0.13,0.48,0.12,0.77h-0.42v-0.15c0-0.31-0.07-0.54-0.19-0.7c-0.12-0.15-0.3-0.23-0.54-0.23
		c-0.26,0-0.45,0.08-0.59,0.25c-0.13,0.17-0.2,0.4-0.2,0.71c0,0.3,0.07,0.53,0.2,0.69c0.13,0.16,0.33,0.25,0.57,0.25
		c0.17,0,0.31-0.04,0.44-0.12c0.12-0.08,0.22-0.19,0.29-0.33l0.4,0.14c-0.1,0.22-0.25,0.4-0.44,0.52
		C-269.4,401.57-269.62,401.63-269.87,401.63z M-270.8,400.42v-0.33h1.87v0.33H-270.8z"/>
	<path class="location1c" d="M-267.1,401.63c-0.25,0-0.46-0.06-0.65-0.17c-0.18-0.11-0.33-0.26-0.43-0.46c-0.1-0.2-0.15-0.43-0.15-0.69
		c0-0.28,0.05-0.51,0.15-0.72c0.1-0.2,0.24-0.36,0.42-0.47c0.18-0.11,0.4-0.17,0.64-0.17c0.25,0,0.47,0.06,0.65,0.18
		c0.18,0.12,0.31,0.28,0.4,0.5c0.09,0.22,0.13,0.48,0.12,0.77h-0.42v-0.15c0-0.31-0.07-0.54-0.19-0.7c-0.12-0.15-0.3-0.23-0.54-0.23
		c-0.26,0-0.45,0.08-0.59,0.25c-0.13,0.17-0.2,0.4-0.2,0.71c0,0.3,0.07,0.53,0.2,0.69c0.13,0.16,0.33,0.25,0.57,0.25
		c0.17,0,0.31-0.04,0.44-0.12c0.12-0.08,0.22-0.19,0.29-0.33l0.4,0.14c-0.1,0.22-0.25,0.4-0.44,0.52
		C-266.64,401.57-266.86,401.63-267.1,401.63z M-268.04,400.42v-0.33h1.87v0.33H-268.04z"/>
	<path class="location1c" d="M-265.51,402.68v-3.65h0.37v1.86h0.05v1.79H-265.51z M-264.35,401.63c-0.24,0-0.44-0.06-0.6-0.18
		c-0.16-0.12-0.28-0.28-0.37-0.48s-0.12-0.43-0.12-0.68c0-0.25,0.04-0.48,0.12-0.68s0.21-0.36,0.37-0.47
		c0.16-0.12,0.36-0.17,0.6-0.17c0.23,0,0.44,0.06,0.6,0.17c0.17,0.12,0.3,0.27,0.39,0.48s0.14,0.43,0.14,0.68s-0.05,0.48-0.14,0.68
		s-0.22,0.36-0.39,0.48C-263.91,401.57-264.11,401.63-264.35,401.63z M-264.4,401.25c0.17,0,0.3-0.04,0.41-0.13
		c0.11-0.08,0.19-0.2,0.25-0.34s0.08-0.31,0.08-0.49c0-0.18-0.03-0.34-0.08-0.48s-0.14-0.26-0.25-0.34s-0.25-0.13-0.42-0.13
		c-0.16,0-0.3,0.04-0.41,0.12c-0.11,0.08-0.19,0.19-0.24,0.34c-0.05,0.14-0.08,0.31-0.08,0.49c0,0.18,0.03,0.35,0.08,0.49
		c0.05,0.14,0.13,0.26,0.24,0.34C-264.71,401.21-264.57,401.25-264.4,401.25z"/>
	<path class="location1c" d="M-261.78,401.63c-0.3,0-0.55-0.07-0.74-0.2c-0.19-0.13-0.31-0.32-0.35-0.55l0.43-0.07
		c0.03,0.14,0.11,0.25,0.24,0.33s0.28,0.12,0.46,0.12c0.17,0,0.31-0.04,0.41-0.11c0.1-0.07,0.15-0.17,0.15-0.29
		c0-0.07-0.02-0.13-0.05-0.17c-0.03-0.04-0.1-0.09-0.2-0.12s-0.26-0.09-0.46-0.14c-0.22-0.06-0.4-0.12-0.53-0.18
		c-0.13-0.06-0.22-0.14-0.27-0.22c-0.05-0.08-0.08-0.19-0.08-0.31c0-0.15,0.04-0.28,0.12-0.39c0.08-0.11,0.19-0.2,0.34-0.26
		s0.32-0.09,0.51-0.09c0.19,0,0.36,0.03,0.51,0.09c0.15,0.06,0.27,0.15,0.37,0.26s0.15,0.24,0.17,0.39l-0.43,0.08
		c-0.02-0.13-0.09-0.24-0.2-0.32c-0.11-0.08-0.25-0.12-0.42-0.12c-0.16,0-0.3,0.03-0.4,0.09c-0.1,0.06-0.15,0.15-0.15,0.26
		c0,0.06,0.02,0.11,0.06,0.16s0.11,0.08,0.21,0.12c0.1,0.04,0.25,0.08,0.45,0.13c0.22,0.06,0.4,0.12,0.53,0.18
		c0.13,0.07,0.22,0.14,0.27,0.23c0.05,0.09,0.08,0.2,0.08,0.33c0,0.24-0.09,0.43-0.27,0.57
		C-261.22,401.56-261.47,401.63-261.78,401.63z"/>
	<path class="location1c" d="M-260.21,398.59v-0.43h0.42v0.43H-260.21z M-260.21,401.56v-2.53h0.42v2.53H-260.21z"/>
	<path class="location1c" d="M-257.99,401.63c-0.25,0-0.46-0.06-0.65-0.17c-0.18-0.11-0.33-0.26-0.43-0.46c-0.1-0.2-0.15-0.43-0.15-0.69
		c0-0.28,0.05-0.51,0.15-0.72c0.1-0.2,0.24-0.36,0.42-0.47c0.18-0.11,0.4-0.17,0.64-0.17c0.25,0,0.47,0.06,0.65,0.18
		c0.18,0.12,0.31,0.28,0.4,0.5c0.09,0.22,0.13,0.48,0.12,0.77h-0.42v-0.15c0-0.31-0.07-0.54-0.19-0.7c-0.12-0.15-0.3-0.23-0.54-0.23
		c-0.26,0-0.45,0.08-0.59,0.25c-0.13,0.17-0.2,0.4-0.2,0.71c0,0.3,0.07,0.53,0.2,0.69c0.13,0.16,0.33,0.25,0.57,0.25
		c0.17,0,0.31-0.04,0.44-0.12c0.12-0.08,0.22-0.19,0.29-0.33l0.4,0.14c-0.1,0.22-0.25,0.4-0.44,0.52
		C-257.53,401.57-257.75,401.63-257.99,401.63z M-258.93,400.42v-0.33h1.87v0.33H-258.93z"/>
	<path class="location1c" d="M-287.47,407.99v-5.05h1.56c0.05,0,0.14,0,0.27,0c0.13,0,0.25,0.01,0.37,0.03c0.39,0.05,0.72,0.19,0.98,0.43
		c0.26,0.23,0.46,0.53,0.59,0.89c0.13,0.36,0.2,0.75,0.2,1.18c0,0.43-0.07,0.82-0.2,1.18s-0.33,0.65-0.59,0.89s-0.59,0.37-0.98,0.42
		c-0.12,0.02-0.24,0.03-0.37,0.03c-0.13,0-0.22,0-0.27,0H-287.47z M-286.83,407.4h0.92c0.09,0,0.19,0,0.3-0.01s0.21-0.02,0.29-0.03
		c0.28-0.05,0.5-0.17,0.67-0.35c0.17-0.18,0.3-0.4,0.38-0.67c0.08-0.27,0.12-0.56,0.12-0.87c0-0.32-0.04-0.61-0.12-0.88
		c-0.08-0.27-0.21-0.49-0.38-0.67c-0.17-0.18-0.39-0.29-0.67-0.34c-0.08-0.02-0.18-0.03-0.29-0.03s-0.21-0.01-0.29-0.01h-0.92V407.4
		z"/>
	<path class="location1c" d="M-281.25,408.09c-0.25,0-0.46-0.04-0.63-0.12c-0.17-0.08-0.32-0.18-0.43-0.31s-0.2-0.27-0.27-0.43
		c-0.07-0.16-0.11-0.32-0.14-0.48c-0.03-0.16-0.04-0.32-0.04-0.46v-2.09h0.63v1.9c0,0.18,0.02,0.35,0.05,0.52s0.09,0.32,0.17,0.45
		c0.08,0.13,0.18,0.24,0.32,0.32s0.3,0.12,0.5,0.12c0.16,0,0.3-0.03,0.43-0.08s0.24-0.13,0.33-0.24c0.09-0.11,0.16-0.24,0.21-0.41
		s0.08-0.35,0.08-0.57l0.41,0.13c0,0.36-0.07,0.68-0.2,0.94c-0.13,0.26-0.32,0.47-0.56,0.61
		C-280.65,408.02-280.93,408.09-281.25,408.09z M-279.99,407.99v-1.01h-0.07v-2.78h0.63v3.79H-279.99z"/>
	<path class="location1c" d="M-278.87,404.72v-0.52h2.54v0.52H-278.87z M-276.33,407.99c-0.22,0.05-0.45,0.07-0.67,0.06
		c-0.22-0.01-0.41-0.05-0.59-0.13s-0.3-0.21-0.39-0.38c-0.07-0.15-0.12-0.3-0.12-0.45s-0.01-0.33-0.01-0.52v-3.41h0.62v3.38
		c0,0.15,0,0.29,0.01,0.4c0,0.11,0.03,0.2,0.07,0.28c0.08,0.15,0.22,0.24,0.4,0.26c0.18,0.03,0.41,0.02,0.67-0.02V407.99z"/>
	<path class="location1c" d="M-274.12,408.1c-0.38,0-0.71-0.09-0.98-0.26c-0.27-0.17-0.47-0.41-0.61-0.71c-0.14-0.3-0.21-0.65-0.22-1.03
		c0-0.39,0.08-0.74,0.22-1.04s0.35-0.54,0.62-0.71s0.59-0.25,0.97-0.25c0.4,0,0.74,0.1,1.03,0.29c0.29,0.2,0.48,0.47,0.58,0.81
		l-0.62,0.19c-0.08-0.22-0.21-0.39-0.39-0.51c-0.18-0.12-0.38-0.18-0.61-0.18c-0.26,0-0.47,0.06-0.64,0.18
		c-0.17,0.12-0.29,0.29-0.38,0.5c-0.08,0.21-0.12,0.45-0.13,0.73c0,0.42,0.1,0.76,0.29,1.02c0.19,0.26,0.47,0.39,0.85,0.39
		c0.25,0,0.45-0.06,0.62-0.17c0.16-0.11,0.29-0.28,0.37-0.49l0.63,0.17c-0.13,0.35-0.34,0.62-0.61,0.81
		C-273.4,408-273.73,408.1-274.12,408.1z"/>
	<path class="location1c" d="M-271.79,407.99v-5.05h0.56v2.79h0.07v2.26H-271.79z M-269.09,407.99v-1.9c0-0.18-0.02-0.35-0.05-0.52
		s-0.09-0.32-0.17-0.45c-0.08-0.13-0.18-0.24-0.31-0.32s-0.3-0.12-0.5-0.12c-0.16,0-0.3,0.03-0.43,0.08
		c-0.13,0.05-0.24,0.13-0.33,0.24s-0.16,0.24-0.21,0.4c-0.05,0.16-0.08,0.35-0.08,0.57l-0.41-0.13c0-0.37,0.07-0.68,0.2-0.94
		c0.13-0.26,0.32-0.47,0.56-0.61s0.52-0.21,0.85-0.21c0.25,0,0.46,0.04,0.63,0.12c0.17,0.08,0.32,0.18,0.43,0.31
		c0.11,0.13,0.2,0.27,0.27,0.43c0.07,0.16,0.11,0.32,0.14,0.48s0.04,0.32,0.04,0.46v2.09H-269.09z"/>
	<path class="location1c" d="M-265.9,408.1c-0.37,0-0.7-0.08-0.97-0.25c-0.28-0.17-0.49-0.4-0.65-0.69s-0.23-0.64-0.23-1.04
		c0-0.41,0.08-0.77,0.23-1.08c0.15-0.3,0.36-0.54,0.64-0.7s0.59-0.25,0.96-0.25c0.38,0,0.71,0.09,0.97,0.26
		c0.27,0.18,0.47,0.43,0.6,0.75c0.13,0.33,0.19,0.71,0.17,1.16h-0.63v-0.22c-0.01-0.47-0.1-0.81-0.28-1.04
		c-0.18-0.23-0.45-0.35-0.81-0.35c-0.39,0-0.68,0.12-0.88,0.37s-0.3,0.6-0.3,1.07c0,0.45,0.1,0.79,0.3,1.04
		c0.2,0.25,0.49,0.37,0.86,0.37c0.25,0,0.47-0.06,0.65-0.17c0.18-0.11,0.33-0.28,0.44-0.5l0.6,0.21c-0.15,0.33-0.37,0.59-0.66,0.78
		S-265.53,408.1-265.9,408.1z M-267.3,406.27v-0.5h2.8v0.5H-267.3z"/>
	<path class="location1c" d="M-261.97,408.09c-0.45,0-0.82-0.1-1.11-0.3c-0.29-0.2-0.47-0.47-0.53-0.83l0.64-0.1
		c0.05,0.21,0.17,0.37,0.35,0.49c0.19,0.12,0.41,0.18,0.69,0.18c0.26,0,0.46-0.05,0.61-0.16s0.22-0.25,0.22-0.44
		c0-0.11-0.02-0.19-0.07-0.26c-0.05-0.07-0.15-0.13-0.3-0.19s-0.38-0.13-0.69-0.21c-0.33-0.09-0.6-0.18-0.79-0.28
		s-0.33-0.21-0.41-0.33c-0.08-0.13-0.12-0.28-0.12-0.46c0-0.22,0.06-0.42,0.18-0.58s0.29-0.29,0.51-0.39
		c0.22-0.09,0.47-0.14,0.76-0.14c0.29,0,0.54,0.05,0.77,0.14c0.23,0.09,0.41,0.22,0.55,0.39c0.14,0.17,0.22,0.36,0.25,0.58
		l-0.64,0.12c-0.03-0.2-0.13-0.36-0.29-0.48c-0.17-0.12-0.38-0.18-0.63-0.19c-0.25-0.01-0.44,0.04-0.6,0.13s-0.23,0.22-0.23,0.39
		c0,0.09,0.03,0.17,0.09,0.24c0.06,0.06,0.16,0.13,0.32,0.18c0.16,0.06,0.38,0.12,0.68,0.2c0.33,0.08,0.6,0.18,0.79,0.28
		c0.19,0.1,0.33,0.22,0.41,0.35c0.08,0.13,0.12,0.3,0.12,0.5c0,0.37-0.13,0.65-0.4,0.86S-261.5,408.09-261.97,408.09z"/>
	<path class="location1c" d="M-258.25,408.09c-0.45,0-0.82-0.1-1.11-0.3c-0.29-0.2-0.47-0.47-0.53-0.83l0.64-0.1
		c0.05,0.21,0.17,0.37,0.35,0.49c0.19,0.12,0.41,0.18,0.69,0.18c0.26,0,0.46-0.05,0.61-0.16s0.22-0.25,0.22-0.44
		c0-0.11-0.02-0.19-0.07-0.26c-0.05-0.07-0.15-0.13-0.3-0.19s-0.38-0.13-0.69-0.21c-0.33-0.09-0.6-0.18-0.79-0.28
		s-0.33-0.21-0.41-0.33c-0.08-0.13-0.12-0.28-0.12-0.46c0-0.22,0.06-0.42,0.18-0.58s0.29-0.29,0.51-0.39
		c0.22-0.09,0.47-0.14,0.76-0.14c0.29,0,0.54,0.05,0.77,0.14c0.23,0.09,0.41,0.22,0.55,0.39c0.14,0.17,0.22,0.36,0.25,0.58
		l-0.64,0.12c-0.03-0.2-0.13-0.36-0.29-0.48c-0.17-0.12-0.38-0.18-0.63-0.19c-0.25-0.01-0.44,0.04-0.6,0.13s-0.23,0.22-0.23,0.39
		c0,0.09,0.03,0.17,0.09,0.24c0.06,0.06,0.16,0.13,0.32,0.18c0.16,0.06,0.38,0.12,0.68,0.2c0.33,0.08,0.6,0.18,0.79,0.28
		c0.19,0.1,0.33,0.22,0.41,0.35c0.08,0.13,0.12,0.3,0.12,0.5c0,0.37-0.13,0.65-0.4,0.86S-257.77,408.09-258.25,408.09z"/>
</g>
</svg>
