<?xml version="1.0" encoding="utf-8"?>
<!-- Generator: Adobe Illustrator 19.0.0, SVG Export Plug-In . SVG Version: 6.00 Build 0)  -->
<svg version="1.1" id="Isolation_Mode" xmlns="http://www.w3.org/2000/svg" xmlns:xlink="http://www.w3.org/1999/xlink" x="0px"
	 y="0px" viewBox="156 -78 612 554" style="enable-background:new 156 -78 612 554;" xml:space="preserve">
<style type="text/css">
	.st0{fill:#FFFFFF;}
	.st1{fill:#ED7036;}
</style>
<path class="st0" d="M506-49.6L606.2,8.2l1.4,0.8l1.6,0.3l120.4,19.5l9.8,1.6l0.6-9.9l2.7-44.8l7.7,0.4l-19.3,299.4l-7.3,106
	l-26-2.2l-1-0.1l-1,0.1l-204.7,28.6l-3.6,0.5l-2.2,2.9l-24.8,32.2l-1.3-1.6l2.4-53.8l22.7-45l0.8-1.6l0.1-1.8l9-113.8l0.1-1.1
	l-0.2-1.1l-5.4-32.7l5.2-73.1l0.1-1.6l-0.5-1.6l-11.3-38.7l13.5-125.1L506-49.6 M508.1-58.8l-20.5,1.5L473,77l11.9,40.4l-5.3,74.1
	l5.6,33.7l-9,113.8l-23.6,46.7l-2.6,59.2l10.7,13.1l31.7-41.2l204.7-28.6l35.1,3l7.9-115.1L760-32.5l-25.7-1.3L731,19.9L610.7,0.4
	L508.1-58.8L508.1-58.8z"/>
<path class="st1" d="M507.1,142.7c22.1,0,40.2,21,35.1,42.8c-4.3,17.9-23.5,34.8-35,48c-11.5-13.4-31.8-31.6-35.4-49.5
	C467.4,162.7,485.8,142.7,507.1,142.7L507.1,142.7z"/>
<g>
	<path class="st0" d="M180,170.8v-28.1h11.1c0.3,0,0.6,0,1,0c0.3,0,0.8,0.1,1.1,0.2c1.5,0.3,2.8,0.8,3.8,1.6c1,0.8,1.8,1.8,2.3,3.1
		c0.5,1.3,0.8,2.6,0.8,4.1s-0.3,2.8-0.8,4.1c-0.5,1.3-1.3,2.3-2.3,3.1c-1,0.8-2.3,1.3-3.8,1.6c-0.3,0.1-0.8,0.1-1.1,0.1
		c-0.4,0-0.7,0-1,0h-7.6v10.3L180,170.8L180,170.8z M183.5,157.1h7.5c0.3,0,0.5,0,0.8,0s0.6-0.1,0.9-0.2c0.9-0.2,1.6-0.6,2.2-1.2
		c0.6-0.6,1-1.2,1.3-1.9c0.3-0.8,0.4-1.5,0.4-2.3s-0.2-1.5-0.4-2.3c-0.3-0.8-0.7-1.4-1.3-1.9c-0.6-0.5-1.3-0.9-2.2-1.2
		c-0.3-0.1-0.6-0.1-0.9-0.2c-0.3,0-0.6,0-0.8,0h-7.5V157.1z"/>
	<path class="st0" d="M212.8,171.4c-2.1,0-3.9-0.5-5.4-1.4c-1.5-0.9-2.7-2.3-3.5-3.9s-1.3-3.6-1.3-5.8c0-2.2,0.4-4.2,1.3-5.8
		s2-3,3.5-3.9c1.5-0.9,3.3-1.4,5.3-1.4c2.1,0,3.9,0.5,5.4,1.4c1.5,0.9,2.7,2.3,3.5,3.9s1.3,3.6,1.3,5.8c0,2.2-0.4,4.2-1.3,5.8
		s-2,3-3.5,3.9C216.7,171,215,171.4,212.8,171.4z M212.8,168.2c2.2,0,3.8-0.8,4.8-2.2c1.1-1.4,1.6-3.3,1.6-5.7s-0.5-4.3-1.6-5.7
		c-1.1-1.4-2.7-2.1-4.8-2.1c-1.5,0-2.7,0.3-3.7,1c-0.9,0.7-1.7,1.6-2.1,2.8c-0.4,1.2-0.7,2.5-0.7,4.1c0,2.3,0.6,4.3,1.7,5.7
		C209.1,167.4,210.7,168.2,212.8,168.2z"/>
	<path class="st0" d="M235.3,171.4c-1.3,0-2.5-0.3-3.5-0.7c-1-0.4-1.8-1-2.4-1.8c-0.7-0.8-1.2-1.5-1.5-2.4c-0.3-0.9-0.6-1.8-0.8-2.7
		c-0.2-0.9-0.3-1.8-0.3-2.6v-11.7h3.5v10.6c0,1,0.1,1.9,0.3,2.8c0.2,0.9,0.5,1.8,0.9,2.5c0.4,0.8,1,1.3,1.8,1.8
		c0.8,0.4,1.7,0.7,2.8,0.7c0.8,0,1.7-0.2,2.3-0.4c0.7-0.3,1.3-0.8,1.8-1.3c0.5-0.6,0.9-1.3,1.2-2.3c0.3-0.9,0.4-2,0.4-3.2l2.3,0.7
		c0,2-0.3,3.8-1.1,5.3c-0.8,1.5-1.8,2.6-3.1,3.4C238.7,171,237.1,171.4,235.3,171.4z M242.3,170.8v-5.7h-0.4v-15.4h3.5v21.1H242.3z"
		/>
	<path class="st0" d="M259.2,171.4c-2,0-3.7-0.5-5.1-1.5c-1.4-1-2.5-2.3-3.3-4c-0.8-1.7-1.2-3.6-1.2-5.7s0.4-4,1.2-5.7
		c0.8-1.7,1.8-3,3.3-4s3.1-1.4,5-1.4c2,0,3.7,0.5,5,1.4c1.3,0.9,2.3,2.3,3.1,3.9c0.8,1.7,1.1,3.6,1.1,5.7s-0.3,4-1.1,5.7
		c-0.8,1.7-1.8,3-3.1,4C262.8,170.9,261.1,171.4,259.2,171.4z M259.4,180.8c-1.1,0-2.2-0.2-3.3-0.5c-1.1-0.3-2-0.8-2.9-1.5
		c-0.8-0.7-1.6-1.6-2.2-2.6l3.2-1.7c0.5,1,1.3,1.8,2.3,2.3c0.9,0.5,1.9,0.7,2.9,0.7c1.3,0,2.4-0.3,3.3-0.8c0.9-0.5,1.5-1.2,2-2.2
		c0.4-1,0.7-2.2,0.6-3.6v-5.8h0.4v-15.4h3.1v21.2c0,0.6,0,1.2-0.1,1.7c0,0.5-0.1,1.1-0.2,1.6c-0.3,1.5-0.8,2.8-1.6,3.7
		c-0.8,0.9-1.8,1.7-3.1,2.2C262.7,180.5,261.1,180.8,259.4,180.8z M259.6,168.3c1.4,0,2.6-0.3,3.5-1c0.9-0.7,1.6-1.6,2-2.8
		c0.4-1.2,0.7-2.6,0.7-4.1c0-1.6-0.3-2.9-0.7-4.1c-0.4-1.2-1.1-2.2-2-2.8s-2-1-3.4-1s-2.6,0.3-3.5,1.1c-0.9,0.7-1.6,1.7-2.1,2.8
		c-0.5,1.2-0.7,2.5-0.7,4c0,1.5,0.3,2.8,0.7,4.1s1.2,2.2,2.1,2.8C257.1,167.9,258.2,168.3,259.6,168.3z"/>
	<path class="st0" d="M274.3,170.8v-28.1h3.1v15.5h0.4v12.6H274.3z M289.3,170.8v-10.6c0-1-0.1-1.9-0.3-2.8
		c-0.2-0.9-0.5-1.8-0.9-2.5c-0.4-0.8-1-1.3-1.8-1.8s-1.7-0.7-2.8-0.7c-0.8,0-1.7,0.2-2.3,0.4s-1.3,0.8-1.8,1.3s-0.9,1.3-1.2,2.3
		s-0.4,2-0.4,3.2l-2.3-0.7c0-2,0.3-3.8,1.1-5.3s1.8-2.6,3.1-3.4s2.9-1.2,4.7-1.2c1.3,0,2.5,0.3,3.5,0.7s1.8,1,2.4,1.8
		c0.7,0.8,1.2,1.5,1.5,2.4c0.3,0.8,0.6,1.8,0.8,2.7c0.2,0.9,0.3,1.8,0.3,2.6v11.7L289.3,170.8L289.3,170.8z"/>
	<path class="st0" d="M297.9,170.8v-28.1h3.5v17.2l8.8-10.2h4.5l-9.3,10.5l10.4,10.5H311l-9.6-10.2v10.2L297.9,170.8L297.9,170.8z"
		/>
	<path class="st0" d="M326.6,171.4c-2.1,0-3.8-0.5-5.4-1.4c-1.5-0.9-2.8-2.2-3.6-3.8c-0.8-1.7-1.3-3.6-1.3-5.8c0-2.3,0.4-4.3,1.3-6
		c0.8-1.7,2-3,3.5-3.9c1.5-0.9,3.3-1.4,5.3-1.4c2.1,0,3.9,0.5,5.4,1.5c1.5,1,2.6,2.3,3.3,4.2c0.8,1.8,1.1,4,1,6.4h-3.5v-1.3
		c0-2.6-0.6-4.5-1.6-5.8c-1-1.3-2.5-1.9-4.5-1.9c-2.2,0-3.8,0.7-4.9,2.1c-1.1,1.4-1.7,3.3-1.7,5.9c0,2.5,0.6,4.4,1.7,5.8
		c1.1,1.3,2.8,2.1,4.8,2.1c1.4,0,2.6-0.3,3.7-1c1-0.7,1.8-1.6,2.4-2.8l3.3,1.2c-0.8,1.8-2.1,3.3-3.7,4.3
		C330.5,170.9,328.6,171.4,326.6,171.4z M318.8,161.3v-2.8h15.6v2.8H318.8z"/>
	<path class="st0" d="M349.7,171.4c-2.1,0-3.8-0.5-5.4-1.4c-1.5-0.9-2.8-2.2-3.6-3.8c-0.8-1.7-1.3-3.6-1.3-5.8c0-2.3,0.4-4.3,1.3-6
		c0.8-1.7,2-3,3.5-3.9c1.5-0.9,3.3-1.4,5.3-1.4c2.1,0,3.9,0.5,5.4,1.5c1.5,1,2.6,2.3,3.3,4.2s1.1,4,1,6.4h-3.5v-1.3
		c0-2.6-0.6-4.5-1.6-5.8c-1-1.3-2.5-1.9-4.5-1.9c-2.2,0-3.8,0.7-4.9,2.1c-1.1,1.4-1.7,3.3-1.7,5.9c0,2.5,0.6,4.4,1.7,5.8
		c1.1,1.3,2.8,2.1,4.8,2.1c1.4,0,2.6-0.3,3.7-1c1-0.7,1.8-1.6,2.4-2.8l3.3,1.2c-0.8,1.8-2.1,3.3-3.7,4.3
		C353.5,170.9,351.7,171.4,349.7,171.4z M341.8,161.3v-2.8h15.6v2.8H341.8z"/>
	<path class="st0" d="M362.9,180.2v-30.5h3.1v15.5h0.4v14.9H362.9z M372.6,171.4c-2,0-3.7-0.5-5-1.5c-1.3-1-2.3-2.3-3.1-4
		c-0.8-1.7-1-3.6-1-5.7s0.3-4,1-5.7c0.7-1.7,1.8-3,3.1-3.9c1.3-1,3-1.4,5-1.4c1.9,0,3.7,0.5,5,1.4c1.4,1,2.5,2.3,3.3,4
		s1.2,3.6,1.2,5.7s-0.4,4-1.2,5.7s-1.8,3-3.3,4C376.3,170.9,374.6,171.4,372.6,171.4z M372.2,168.3c1.4,0,2.5-0.3,3.4-1.1
		c0.9-0.7,1.6-1.7,2.1-2.8s0.7-2.6,0.7-4.1c0-1.5-0.3-2.8-0.7-4c-0.4-1.2-1.2-2.2-2.1-2.8s-2.1-1.1-3.5-1.1c-1.3,0-2.5,0.3-3.4,1
		c-0.9,0.7-1.6,1.6-2,2.8c-0.4,1.2-0.7,2.6-0.7,4.1s0.3,2.9,0.7,4.1c0.4,1.2,1.1,2.2,2,2.8C369.6,167.9,370.8,168.3,372.2,168.3z"/>
	<path class="st0" d="M394.1,171.4c-2.5,0-4.6-0.6-6.2-1.7s-2.6-2.7-2.9-4.6l3.6-0.6c0.3,1.2,0.9,2.1,2,2.8c1.1,0.7,2.3,1,3.8,1
		c1.4,0,2.6-0.3,3.4-0.9c0.8-0.6,1.3-1.4,1.3-2.4c0-0.6-0.2-1.1-0.4-1.4s-0.8-0.8-1.7-1c-0.8-0.3-2.2-0.8-3.8-1.2
		c-1.8-0.5-3.3-1-4.4-1.5c-1.1-0.5-1.8-1.2-2.3-1.8s-0.7-1.6-0.7-2.6c0-1.3,0.3-2.3,1-3.3c0.7-0.9,1.6-1.7,2.8-2.2
		c1.3-0.5,2.7-0.8,4.3-0.8c1.6,0,3,0.3,4.3,0.8c1.3,0.5,2.3,1.3,3.1,2.2c0.8,0.9,1.3,2,1.4,3.3l-3.6,0.7c-0.2-1.1-0.8-2-1.7-2.7
		c-0.9-0.7-2.1-1-3.5-1c-1.3,0-2.5,0.3-3.3,0.8c-0.8,0.5-1.3,1.3-1.3,2.2c0,0.5,0.2,0.9,0.5,1.3c0.3,0.4,0.9,0.7,1.8,1
		c0.8,0.3,2.1,0.7,3.8,1.1c1.8,0.5,3.3,1,4.4,1.5c1.1,0.6,1.8,1.2,2.3,1.9c0.4,0.8,0.7,1.7,0.7,2.8c0,2-0.8,3.6-2.3,4.8
		C398.8,170.8,396.7,171.4,394.1,171.4z"/>
	<path class="st0" d="M407.2,146v-3.6h3.5v3.6H407.2z M407.2,170.8v-21.1h3.5v21.1H407.2z"/>
	<path class="st0" d="M425.7,171.4c-2.1,0-3.8-0.5-5.4-1.4c-1.5-0.9-2.8-2.2-3.6-3.8c-0.8-1.7-1.3-3.6-1.3-5.8c0-2.3,0.4-4.3,1.3-6
		c0.8-1.7,2-3,3.5-3.9c1.5-0.9,3.3-1.4,5.3-1.4c2.1,0,3.9,0.5,5.4,1.5c1.5,1,2.6,2.3,3.3,4.2s1.1,4,1,6.4h-3.5v-1.3
		c0-2.6-0.6-4.5-1.6-5.8c-1-1.3-2.5-1.9-4.5-1.9c-2.2,0-3.8,0.7-4.9,2.1c-1.1,1.4-1.7,3.3-1.7,5.9c0,2.5,0.6,4.4,1.7,5.8
		c1.1,1.3,2.8,2.1,4.8,2.1c1.4,0,2.6-0.3,3.7-1c1-0.7,1.8-1.6,2.4-2.8l3.3,1.2c-0.8,1.8-2.1,3.3-3.7,4.3
		C429.6,170.9,427.7,171.4,425.7,171.4z M417.9,161.3v-2.8h15.6v2.8H417.9z"/>
	<path class="st0" d="M179.6,224.5v-42.2h13c0.4,0,1.2,0,2.3,0c1.1,0,2.1,0.1,3.1,0.3c3.3,0.4,6,1.6,8.2,3.6
		c2.2,1.9,3.8,4.4,4.9,7.4c1.1,3,1.7,6.3,1.7,9.8s-0.6,6.8-1.7,9.8s-2.8,5.4-4.9,7.4c-2.2,2-4.9,3.1-8.2,3.5c-1,0.2-2,0.3-3.1,0.3
		c-1.1,0-1.8,0-2.3,0L179.6,224.5L179.6,224.5z M185,219.6h7.7c0.8,0,1.6,0,2.5-0.1c0.9-0.1,1.8-0.2,2.4-0.3
		c2.3-0.4,4.2-1.4,5.6-2.9c1.4-1.5,2.5-3.3,3.2-5.6c0.7-2.3,1-4.7,1-7.3c0-2.7-0.3-5.1-1-7.3c-0.7-2.3-1.8-4.1-3.2-5.6
		c-1.4-1.5-3.3-2.4-5.6-2.8c-0.7-0.2-1.5-0.3-2.4-0.3s-1.8-0.1-2.4-0.1h-7.7L185,219.6L185,219.6z"/>
	<path class="st0" d="M231.6,225.3c-2.1,0-3.8-0.3-5.3-1s-2.7-1.5-3.6-2.6c-0.9-1.1-1.7-2.3-2.3-3.6c-0.6-1.3-0.9-2.7-1.2-4
		c-0.3-1.3-0.3-2.7-0.3-3.8v-17.4h5.3v15.9c0,1.5,0.2,2.9,0.4,4.3c0.3,1.4,0.8,2.7,1.4,3.8c0.7,1.1,1.5,2,2.7,2.7
		c1.2,0.7,2.5,1,4.2,1c1.3,0,2.5-0.3,3.6-0.7s2-1.1,2.8-2c0.8-0.9,1.3-2,1.8-3.4s0.7-2.9,0.7-4.8l3.4,1.1c0,3-0.6,5.7-1.7,7.8
		c-1.1,2.2-2.7,3.9-4.7,5.1C236.6,224.8,234.2,225.3,231.6,225.3z M242.1,224.5v-8.4h-0.6v-23.2h5.3v31.6H242.1z"/>
	<path class="st0" d="M251.4,197.2v-4.3h21.2v4.3H251.4z M272.6,224.5c-1.8,0.4-3.8,0.6-5.6,0.5c-1.8-0.1-3.4-0.4-4.9-1.1
		c-1.5-0.7-2.5-1.8-3.3-3.2c-0.6-1.3-1-2.5-1-3.8s-0.1-2.8-0.1-4.3v-28.5h5.2v28.2c0,1.3,0,2.4,0.1,3.3c0,0.9,0.3,1.7,0.6,2.3
		c0.7,1.3,1.8,2,3.3,2.2c1.5,0.3,3.4,0.2,5.6-0.2L272.6,224.5L272.6,224.5z"/>
	<path class="st0" d="M291.1,225.4c-3.2,0-5.9-0.8-8.2-2.2c-2.3-1.4-3.9-3.4-5.1-5.9c-1.2-2.5-1.8-5.4-1.8-8.6
		c0-3.3,0.7-6.2,1.8-8.7c1.2-2.5,2.9-4.5,5.2-5.9c2.3-1.4,4.9-2.1,8.1-2.1c3.3,0,6.2,0.8,8.6,2.4c2.4,1.7,4,3.9,4.8,6.8l-5.2,1.6
		c-0.7-1.8-1.8-3.3-3.3-4.3c-1.5-1-3.2-1.5-5.1-1.5c-2.2,0-3.9,0.5-5.3,1.5c-1.4,1-2.4,2.4-3.2,4.2c-0.7,1.8-1,3.8-1.1,6.1
		c0,3.5,0.8,6.3,2.4,8.5c1.6,2.2,3.9,3.3,7.1,3.3c2.1,0,3.8-0.5,5.2-1.4c1.3-0.9,2.4-2.3,3.1-4.1l5.3,1.4c-1.1,2.9-2.8,5.2-5.1,6.8
		C297.1,224.6,294.3,225.4,291.1,225.4z"/>
	<path class="st0" d="M310.5,224.5v-42.2h4.7v23.3h0.6v18.9L310.5,224.5L310.5,224.5z M333.1,224.5v-15.9c0-1.5-0.2-2.9-0.4-4.3
		c-0.3-1.4-0.8-2.7-1.4-3.8c-0.7-1.1-1.5-2-2.6-2.7c-1.1-0.7-2.5-1-4.2-1c-1.3,0-2.5,0.3-3.6,0.7c-1.1,0.4-2,1.1-2.8,2
		c-0.8,0.9-1.3,2-1.8,3.3c-0.4,1.3-0.7,2.9-0.7,4.8l-3.4-1.1c0-3.1,0.6-5.7,1.7-7.8c1.1-2.2,2.7-3.9,4.7-5.1c2-1.2,4.3-1.8,7.1-1.8
		c2.1,0,3.8,0.3,5.3,1s2.7,1.5,3.6,2.6c0.9,1.1,1.7,2.3,2.3,3.6c0.6,1.3,0.9,2.7,1.2,4c0.3,1.3,0.3,2.7,0.3,3.8v17.4h-5.3V224.5z"/>
	<path class="st0" d="M359.7,225.4c-3.1,0-5.8-0.7-8.1-2.1c-2.3-1.4-4.1-3.3-5.4-5.8c-1.3-2.4-1.9-5.3-1.9-8.7c0-3.4,0.7-6.4,1.9-9
		c1.3-2.5,3-4.5,5.3-5.8c2.3-1.3,4.9-2.1,8-2.1c3.2,0,5.9,0.8,8.1,2.2c2.3,1.5,3.9,3.6,5,6.3c1.1,2.8,1.6,5.9,1.4,9.7h-5.3v-1.8
		c-0.1-3.9-0.8-6.8-2.3-8.7c-1.5-1.9-3.8-2.9-6.8-2.9c-3.3,0-5.7,1-7.3,3.1s-2.5,5-2.5,8.9c0,3.8,0.8,6.6,2.5,8.7
		c1.7,2.1,4.1,3.1,7.2,3.1c2.1,0,3.9-0.5,5.4-1.4c1.5-0.9,2.8-2.3,3.7-4.2l5,1.8c-1.3,2.8-3.1,4.9-5.5,6.5
		C365.7,224.7,362.8,225.4,359.7,225.4z M348,210.2V206h23.4v4.2H348z"/>
	<path class="st0" d="M392.5,225.3c-3.8,0-6.8-0.8-9.3-2.5c-2.4-1.7-3.9-3.9-4.4-6.9l5.3-0.8c0.4,1.8,1.4,3.1,2.9,4.1
		c1.6,1,3.4,1.5,5.8,1.5c2.2,0,3.8-0.4,5.1-1.3c1.3-0.9,1.8-2.1,1.8-3.7c0-0.9-0.2-1.6-0.6-2.2c-0.4-0.6-1.3-1.1-2.5-1.6
		c-1.3-0.5-3.2-1.1-5.8-1.8c-2.8-0.8-5-1.5-6.6-2.3s-2.8-1.8-3.4-2.8c-0.7-1.1-1-2.3-1-3.8c0-1.8,0.5-3.5,1.5-4.8
		c1-1.3,2.4-2.4,4.3-3.3c1.8-0.8,3.9-1.2,6.3-1.2s4.5,0.4,6.4,1.2c1.9,0.8,3.4,1.8,4.6,3.3c1.2,1.4,1.8,3,2.1,4.8l-5.3,1
		c-0.3-1.7-1.1-3-2.4-4c-1.4-1-3.2-1.5-5.3-1.6c-2.1-0.1-3.7,0.3-5,1.1c-1.3,0.8-1.9,1.8-1.9,3.3c0,0.8,0.3,1.4,0.8,2
		c0.5,0.5,1.3,1.1,2.7,1.5c1.3,0.5,3.2,1,5.7,1.7c2.8,0.7,5,1.5,6.6,2.3s2.8,1.8,3.4,2.9c0.7,1.1,1,2.5,1,4.2c0,3.1-1.1,5.4-3.3,7.2
		C399.7,224.5,396.4,225.3,392.5,225.3z"/>
	<path class="st0" d="M423.5,225.3c-3.8,0-6.8-0.8-9.3-2.5c-2.4-1.7-3.9-3.9-4.4-6.9l5.3-0.8c0.4,1.8,1.4,3.1,2.9,4.1
		c1.6,1,3.4,1.5,5.8,1.5c2.2,0,3.8-0.4,5.1-1.3c1.3-0.9,1.8-2.1,1.8-3.7c0-0.9-0.2-1.6-0.6-2.2c-0.4-0.6-1.3-1.1-2.5-1.6
		c-1.3-0.5-3.2-1.1-5.8-1.8c-2.8-0.8-5-1.5-6.6-2.3s-2.8-1.8-3.4-2.8c-0.7-1.1-1-2.3-1-3.8c0-1.8,0.5-3.5,1.5-4.8
		c1-1.3,2.4-2.4,4.3-3.3c1.8-0.8,3.9-1.2,6.3-1.2c2.4,0,4.5,0.4,6.4,1.2c1.9,0.8,3.4,1.8,4.6,3.3c1.2,1.4,1.8,3,2.1,4.8l-5.3,1
		c-0.3-1.7-1.1-3-2.4-4c-1.4-1-3.2-1.5-5.3-1.6c-2.1-0.1-3.7,0.3-5,1.1c-1.3,0.8-1.9,1.8-1.9,3.3c0,0.8,0.3,1.4,0.8,2
		c0.5,0.5,1.3,1.1,2.7,1.5c1.3,0.5,3.2,1,5.7,1.7c2.8,0.7,5,1.5,6.6,2.3c1.6,0.8,2.8,1.8,3.4,2.9c0.7,1.1,1,2.5,1,4.2
		c0,3.1-1.1,5.4-3.3,7.2C430.7,224.5,427.5,225.3,423.5,225.3z"/>
</g>
</svg>
