<?xml version="1.0" encoding="utf-8"?>
<!-- Generator: Adobe Illustrator 25.4.0, SVG Export Plug-In . SVG Version: 6.00 Build 0)  -->
<svg version="1.1" id="Layer_1" xmlns="http://www.w3.org/2000/svg" xmlns:xlink="http://www.w3.org/1999/xlink" x="0px" y="0px"
	 width="200px" height="25px" viewBox="0 0 200 25" style="enable-background:new 0 0 200 25;" xml:space="preserve">
<style type="text/css">
	.st0{fill:#046791;}
	.st1{fill:#5A5A5A;}
</style>
<path d="M0.1,0.5h3.7v7.2h8.7V0.5h3.7v19.1h-3.7v-8.4H3.7v8.4H0.1V0.5z"/>
<path d="M32.8,13.6H21.4c0.1,0.9,0.6,1.8,1.3,2.4c0.8,0.6,1.7,0.9,2.7,0.9c1.3,0,2.5-0.5,3.4-1.4l3,1.4c-0.7,1-1.6,1.8-2.7,2.4
	C28,19.8,26.8,20,25.5,20c-2,0.1-4-0.7-5.4-2.1c-1.4-1.4-2.2-3.3-2.1-5.3c-0.1-2,0.7-3.9,2.1-5.4c1.4-1.4,3.3-2.2,5.2-2.1
	c2-0.1,4,0.7,5.4,2.1c1.4,1.5,2.2,3.6,2.1,5.7L32.8,13.6z M29.2,10.8C29,10,28.5,9.3,27.8,8.8c-0.7-0.5-1.5-0.7-2.4-0.7
	c-0.9,0-1.9,0.3-2.6,0.8c-0.6,0.5-1,1.1-1.3,1.8L29.2,10.8z"/>
<path d="M45.3,5.5h3.6v14.2h-3.6v-1.5c-0.6,0.6-1.3,1.1-2.1,1.4C42.5,19.9,41.7,20,41,20c-1.8,0-3.5-0.8-4.7-2.1
	c-1.3-1.4-2.1-3.3-2-5.3c-0.1-2,0.6-3.9,1.9-5.4c1.2-1.4,2.9-2.1,4.7-2.1c0.8,0,1.6,0.2,2.4,0.5C44,6,44.7,6.4,45.3,7V5.5z
	 M41.6,8.4c-1,0-2,0.4-2.7,1.2c-1.5,1.7-1.5,4.3,0,6c0.7,0.8,1.7,1.2,2.7,1.2c1,0,2.1-0.4,2.8-1.2c0.8-0.8,1.2-1.9,1.1-3
	c0-1.1-0.4-2.2-1.1-3C43.6,8.8,42.6,8.4,41.6,8.4L41.6,8.4z"/>
<path d="M51.4,0h3.5v19.6h-3.5V0z"/>
<path d="M63.7,16.8c0.8,0,1.6-0.1,2.4-0.4v2c-0.8,0.8-2,1.3-3.2,1.4c-2.9,0-4.2-1.7-4.2-3.7V8.5h-1.8V5.5h1.8V1.8h3.6v3.6h3.9v3.1
	h-3.9v6C62.3,15.8,62.4,16.8,63.7,16.8z"/>
<path d="M68.6,0h3.5v6.9c0.6-0.6,1.3-1,2.1-1.4c0.7-0.3,1.4-0.4,2.1-0.5c1.3,0,2.6,0.5,3.6,1.5c0.9,1,1.3,2.4,1.2,3.7v9.4h-3.5v-6.2
	c0-1.1,0-2.2-0.2-3.3c-0.1-0.5-0.4-1-0.8-1.3c-0.4-0.3-0.9-0.4-1.4-0.4c-0.7,0-1.4,0.2-1.9,0.7c-0.5,0.5-0.9,1.2-1.1,2
	c-0.1,1-0.2,1.9-0.2,2.9v5.7h-3.5V0z"/>
<path class="st0" d="M102.6,3.8L100,6.3c-1.5-1.7-3.6-2.7-5.8-2.7c-3.5-0.1-6.4,2.8-6.5,6.3c0,0,0,0,0,0V10c0,1.2,0.2,2.4,0.8,3.4
	c0.5,1,1.4,1.8,2.4,2.4c1.1,0.6,2.2,0.8,3.4,0.8c1,0,2-0.2,2.9-0.6c1.1-0.5,2.1-1.3,2.9-2.2l2.5,2.6c-1.1,1.2-2.5,2.2-4,2.9
	c-1.4,0.6-2.8,0.8-4.3,0.8c-2.7,0.1-5.4-0.9-7.3-2.8C85,15.3,83.9,12.7,84,10c0-1.8,0.4-3.5,1.3-5.1c0.9-1.5,2.2-2.7,3.7-3.6
	C90.7,0.5,92.4,0,94.2,0C97.4,0,100.5,1.4,102.6,3.8z"/>
<path class="st0" d="M114.6,5.5h3.5v14.2h-3.5v-1.5c-0.6,0.6-1.3,1.1-2.1,1.4c-0.7,0.3-1.5,0.4-2.3,0.4c-1.8,0-3.5-0.8-4.7-2.1
	c-1.3-1.4-2.1-3.3-2-5.3c-0.1-2,0.6-3.9,1.9-5.4c1.2-1.4,2.9-2.1,4.7-2.1c0.8,0,1.6,0.2,2.4,0.5c0.8,0.3,1.5,0.8,2.1,1.4L114.6,5.5z
	 M110.9,8.4c-1,0-2,0.4-2.7,1.2c-0.7,0.8-1.1,1.9-1.1,3c0,1.1,0.4,2.2,1.1,3c0.7,0.8,1.7,1.2,2.7,1.2c1,0,2.1-0.4,2.8-1.2
	c0.8-0.8,1.1-1.9,1.1-3c0-1.1-0.3-2.2-1.1-3C112.9,8.8,111.9,8.3,110.9,8.4L110.9,8.4z"/>
<path class="st0" d="M120.7,5.5h3v3c0.5-1.1,1.3-2,2.3-2.7c1.8-1,3.6,0.4,3.6,0.4v3c-1.2-0.4-2.5-0.3-3.6,0.3
	c-1.2,0.8-1.8,2.1-1.8,4.1v6.2h-3.5V5.5z"/>
<path class="st0" d="M145.3,13.6h-11.4c0.1,0.9,0.6,1.8,1.3,2.4c0.8,0.6,1.7,1,2.7,0.9c1.3,0,2.5-0.5,3.4-1.4l3,1.4
	c-0.7,1-1.6,1.8-2.7,2.4c-1.2,0.5-2.4,0.8-3.7,0.8c-2,0.1-4-0.7-5.4-2.1c-1.4-1.4-2.1-3.3-2.1-5.3c-0.1-2,0.7-3.9,2.1-5.4
	c1.4-1.4,3.3-2.2,5.2-2.1c2-0.1,4,0.7,5.4,2.1c1.4,1.5,2.2,3.6,2.1,5.7L145.3,13.6z M141.7,10.8c-0.2-0.8-0.7-1.5-1.4-1.9
	c-0.7-0.5-1.5-0.7-2.4-0.7c-0.9,0-1.9,0.3-2.6,0.8c-0.6,0.5-1,1.1-1.3,1.8L141.7,10.8z"/>
<path class="st1" d="M149.6,19.8c-0.4,0-0.8-0.1-1-0.4c-0.6-0.6-0.6-1.5,0-2.1c0.6-0.6,1.5-0.6,2,0l0,0c0.6,0.6,0.6,1.5,0,2.1
	C150.4,19.7,150,19.8,149.6,19.8L149.6,19.8z"/>
<path class="st1" d="M161.8,25c-1.1,0-2.2-0.2-3.2-0.5c-0.9-0.3-1.6-0.7-2.3-1.4c-0.7-0.7-1.2-1.4-1.6-2.3h1.6
	c0.5,0.9,1.3,1.6,2.1,2c1,0.5,2.1,0.7,3.2,0.7c1.1,0,2.2-0.2,3.2-0.7c0.8-0.4,1.5-1,1.9-1.8c0.4-1.1,0.6-2.3,0.6-3.5v-1.2l-0.3,0.4
	c-0.7,0.8-1.5,1.5-2.5,2c-2.1,1-4.6,0.9-6.7-0.3c-1.1-0.6-2-1.5-2.6-2.6c-0.6-1.1-0.9-2.3-0.9-3.5c0-4,3.2-7.2,7.2-7.2
	c1,0,2,0.2,2.9,0.6c1,0.5,1.9,1.2,2.6,2.1l0.3,0.3V5.6h1.5v11.1c0.1,1.5-0.1,2.9-0.5,4.3c-0.4,1.2-1.3,2.3-2.4,2.9
	C164.7,24.7,163.2,25,161.8,25L161.8,25z M161.8,6.7c-1,0-2,0.3-2.9,0.8c-0.9,0.5-1.6,1.2-2.1,2.1c-0.5,0.9-0.8,1.9-0.8,2.9
	c0,1.5,0.5,2.9,1.6,3.9c2.4,2.1,5.9,2.1,8.3,0c1.1-1.1,1.6-2.6,1.6-4.1c0-1-0.2-2-0.7-2.9c-0.5-0.9-1.2-1.6-2-2
	C163.8,6.9,162.8,6.7,161.8,6.7L161.8,6.7z"/>
<path class="st1" d="M179.1,19.8c-2,0.1-3.9-0.7-5.2-2.2c-2.7-2.8-2.7-7.2-0.1-10.1c2.7-2.9,7.3-3.1,10.2-0.4
	c0.1,0.1,0.3,0.3,0.4,0.4c2.6,2.9,2.6,7.3-0.1,10.1C182.9,19.1,181,19.9,179.1,19.8L179.1,19.8z M179.1,6.7c-1.5,0-3,0.6-4,1.7
	c-1.1,1.1-1.7,2.6-1.7,4.2c0,1,0.3,2,0.8,2.9c0.5,0.9,1.2,1.6,2.1,2.1c1.8,1,3.9,1,5.7,0c0.9-0.5,1.6-1.2,2.1-2.1
	c0.5-0.9,0.8-1.9,0.8-2.9c0-1.6-0.6-3.1-1.7-4.2C182.1,7.4,180.7,6.7,179.1,6.7L179.1,6.7z"/>
<polygon class="st1" points="193.6,19.4 193.5,19.4 187.1,5.6 188.7,5.6 193.4,15.8 193.5,16.1 193.7,15.8 198.3,5.6 199.9,5.6 
	193.6,19.4 "/>
</svg>
